<?xml version="1.0" encoding="utf-8"?>
<!-- Generator: Adobe Illustrator 22.1.0, SVG Export Plug-In . SVG Version: 6.00 Build 0)  -->
<svg version="1.1" id="Слой_1" xmlns="http://www.w3.org/2000/svg" xmlns:xlink="http://www.w3.org/1999/xlink" x="0px" y="0px"
	 viewBox="0 0 276 183" style="enable-background:new 0 0 276 183;" xml:space="preserve">
<style type="text/css">
	.st0{fill:none;stroke:#010101;stroke-miterlimit:10;}
	.st1{fill:none;stroke:#010101;stroke-linecap:round;stroke-linejoin:round;stroke-miterlimit:10;}
	.st2{fill:#CCCCCC;}
	.st3{fill:none;stroke:#010101;stroke-linejoin:round;stroke-miterlimit:10;}
</style>
<g id="clothes">
	<path class="st0" d="M93.2,103.7h50.7c1.3,0,2.4-1.1,2.4-2.4V74.8c0-1.3-1.1-2.4-2.4-2.4h-26.3c-0.8,0-1.5,0.4-1.9,1l-7.5,10.7
		c-0.4,0.6-1.2,1-1.9,1h-8.9c-1.3,0-2.4-1.1-2.4-2.4V52.4c0-1.3,1.1-2.4,2.4-2.4h80c1.3,0,2.4,1.1,2.4,2.4v48.9
		c0,1.3,1.1,2.4,2.4,2.4h3.2c1.3,0,2.4,1.1,2.4,2.4v16.1c0,1.3-1.1,2.4-2.4,2.4H93.2c-1.3,0-2.4-1.1-2.4-2.4v-16.1
		C90.8,104.8,91.9,103.7,93.2,103.7z"/>
	<line class="st1" x1="100.7" y1="50" x2="100.7" y2="43.1"/>
	<line class="st1" x1="163.9" y1="50" x2="163.9" y2="43.1"/>
	<line class="st1" x1="100.7" y1="85.1" x2="100.7" y2="96.5"/>
	<path class="st1" d="M184.2,87.7h-4.5V54.8h4.5c2,0,3.5,1.6,3.5,3.5v25.8C187.7,86.1,186.1,87.7,184.2,87.7z"/>
	<path class="st0" d="M170,97.7c0,3.9-3.1,7-7,7c-3.9,0-7-3.1-7-7c0-3.9,3.1-7,7-7C166.9,90.6,170,93.8,170,97.7z"/>
	<path class="st0" d="M170,78.7c0,3.9-3.1,7-7,7c-3.9,0-7-3.1-7-7c0-3.9,3.1-7,7-7C166.9,71.7,170,74.8,170,78.7z"/>
	<path class="st2" d="M276,180.3c-0.1-4.5,0-8.7-0.4-13.2c0-0.1,0-0.1,0-0.2c-0.3-2.8-0.6-5.6-0.9-8.5c-0.6-6.2-1.3-12.5-1.9-18.7
		c-0.6-6.3-1.3-12.6-1.9-18.9c-0.5-5.5-1.3-10.8-1.7-16.3c-0.2-3.1-0.5-6.2-1.6-9c-1.1-2.9-3.1-5.3-5.6-7.1
		c-0.4-0.3-0.9-0.5-1.3-0.8h0c-0.5-0.3-1-0.5-1.5-0.7c-1.4-0.6-3.4-1.8-4.5-2.7c-1.9-1.7-3.6-3.8-4.5-6.2c-0.1-0.4-0.6-0.6-0.9-0.3
		c-5.3,4.3-15.5,5.3-21.6,0c-0.3-0.3-0.7,0-0.9,0.3c-0.9,2.4-2.6,4.5-4.5,6.2c-1.1,1-3.2,2.2-4.5,2.7c-0.5,0.2-1,0.4-1.5,0.7h0
		c-0.4,0.2-0.9,0.5-1.3,0.8c-2.5,1.7-4.5,4.2-5.6,7.1c-1.1,2.9-1.4,6-1.6,9c-0.4,5.5-1.2,10.8-1.7,16.3c-0.6,6.3-1.3,12.6-1.9,18.9
		c-0.6,6.2-1.3,12.5-1.9,18.7c-0.3,2.8-0.6,5.6-0.9,8.5c0,0.1,0,0.1,0,0.2c-0.4,4.5-0.3,8.7-0.4,13.2c0,0.5,0,1,0.2,1.4
		c0.4,0.6,1.1,0.7,1.8,0.8c2.3,0.3,4.6,0.5,7,0.8c0.4,0,0.6-0.3,0.7-0.6c1-6.9,1.5-8.7,2.3-13.9c0,0,0,0,0-0.1c0,0,0-0.1,0-0.1
		c0.4-2,4-21.2,5.3-28c0.1-0.5,0.5-0.6,0.9-0.5c0.1,0.1,0.2,0.2,0.3,0.3c0,0,0,0,0,0.1c0.9,2.6,1.7,5.3,2.7,7.9
		c0.1,0.3,0.5,0.5,0.8,0.4c0.1,0,0.2-0.1,0.3-0.1c0,0,0.1,0,0.1,0c0.7-0.2,1.3-0.4,2-0.5c0.1,0,0.1,0,0.1,0h0
		c0.6-0.1,1.2-0.3,1.8-0.4l0.1,0l0.1,0c0.7-0.1,1.4-0.3,2.1-0.4c0,0,0.1,0,0.1,0c0.8-0.1,1.6-0.2,2.5-0.3c0.1,0,0.1,0,0.1,0
		c0.8-0.1,1.7-0.1,2.5-0.2c0.1,0,0.1,0,0.1,0c0.7,0,1.4,0,2.1,0c0.1,0,0.1,0,0.1,0c0.4,0,0.8,0,1.2,0c0.4,0,0.8,0,1.2,0
		c0.1,0,0.1,0,0.2,0c0.7,0,1.4,0,2.1,0c0,0,0.1,0,0.1,0c0.8,0,1.7,0.1,2.5,0.2c0,0,0.1,0,0.1,0c0.8,0.1,1.6,0.2,2.5,0.3
		c0,0,0.1,0,0.1,0c0.7,0.1,1.4,0.2,2.1,0.4l0.1,0l0.1,0c0.6,0.1,1.2,0.2,1.8,0.4h0c0,0,0.1,0,0.1,0c0.7,0.2,1.3,0.3,2,0.5
		c0,0,0.1,0,0.1,0c0.1,0,0.2,0.1,0.3,0.1c0.3,0.1,0.7-0.1,0.8-0.4c0.9-2.6,1.8-5.3,2.7-7.9c0,0,0,0,0-0.1c0.1-0.2,0.2-0.3,0.3-0.3
		c0.3-0.2,0.8,0,0.9,0.5c1.3,6.8,4.9,26,5.3,28c0,0.1,0,0.1,0,0.1c0,0,0,0,0,0.1c0.8,5.1,1.2,7,2.3,13.9c0.1,0.4,0.3,0.7,0.7,0.6
		c2.3-0.3,4.6-0.5,7-0.8c0.7-0.1,1.4-0.2,1.8-0.8C276,181.3,276,180.8,276,180.3"/>
	<path class="st0" d="M218.3,140.6c0.1-0.5,0.5-0.6,0.9-0.5c0.1,0.1,0.2,0.2,0.3,0.3c0,0,0,0,0,0.1c0.9,2.6,1.7,5.3,2.7,7.9
		c0.1,0.3,0.5,0.5,0.8,0.4c0.1,0,0.2-0.1,0.3-0.1c0,0,0.1,0,0.1,0c0.7-0.2,1.3-0.4,2-0.5c0.1,0,0.1,0,0.1,0h0
		c0.6-0.1,1.2-0.3,1.8-0.4l0.1,0l0.1,0c0.7-0.1,1.4-0.3,2.1-0.4c0.1,0,0.1,0,0.1,0c0.8-0.1,1.6-0.2,2.5-0.3c0.1,0,0.1,0,0.1,0
		c0.8-0.1,1.7-0.1,2.5-0.2c0.1,0,0.1,0,0.1,0c0.7,0,1.4,0,2.1,0c0.1,0,0.1,0,0.1,0c0.4,0,0.8,0,1.2,0c0.4,0,0.8,0,1.2,0
		c0.1,0,0.1,0,0.2,0c0.7,0,1.4,0,2.1,0c0,0,0.1,0,0.2,0c0.8,0,1.7,0.1,2.5,0.2c0,0,0.1,0,0.1,0c0.8,0.1,1.6,0.2,2.5,0.3
		c0,0,0.1,0,0.1,0c0.7,0.1,1.4,0.2,2.1,0.4l0.1,0l0.1,0c0.6,0.1,1.2,0.2,1.8,0.4h0c0,0,0.1,0,0.1,0c0.7,0.2,1.3,0.3,2,0.5
		c0,0,0.1,0,0.1,0c0.1,0,0.2,0.1,0.3,0.1c0.3,0.1,0.7-0.1,0.8-0.4c0.9-2.6,1.8-5.3,2.7-7.9c0,0,0,0,0-0.1c0.1-0.2,0.2-0.3,0.3-0.3
		c0.3-0.2,0.8,0,0.9,0.5"/>
	<path class="st0" d="M258.7,140.6c1.3,6.8,4.9,26,5.3,28c0,0.1,0,0.1,0,0.1c0,0,0,0,0,0.1c0.8,5.1,1.2,7,2.3,13.9
		c0.1,0.4,0.3,0.7,0.7,0.6c2.3-0.3,4.6-0.5,7-0.8c0.7-0.1,1.4-0.2,1.8-0.8c0.3-0.4,0.3-0.9,0.2-1.4c-0.1-4.5,0-8.7-0.4-13.2
		c0-0.1,0-0.1,0-0.2c-0.3-2.8-0.6-5.6-0.9-8.5c-0.6-6.2-1.3-12.5-1.9-18.7c-0.6-6.3-1.3-12.6-1.9-18.9c-0.5-5.5-1.3-10.8-1.7-16.3
		c-0.2-3.1-0.5-6.2-1.6-9c-1.1-2.9-3.1-5.3-5.6-7.1c-0.4-0.3-0.9-0.5-1.3-0.8h0c-0.5-0.3-1-0.5-1.5-0.7c-1.4-0.6-3.4-1.8-4.5-2.7
		c-1.9-1.7-3.6-3.8-4.5-6.2c-0.1-0.4-0.6-0.6-0.9-0.3c-5.3,4.3-15.5,5.3-21.6,0c-0.3-0.3-0.7,0-0.9,0.3c-0.9,2.4-2.6,4.5-4.5,6.2
		c-1.1,1-3.2,2.2-4.5,2.7c-0.5,0.2-1,0.4-1.5,0.7h0c-0.4,0.2-0.9,0.5-1.3,0.8c-2.5,1.7-4.5,4.2-5.6,7.1c-1.1,2.9-1.4,6-1.6,9
		c-0.4,5.5-1.2,10.8-1.7,16.3c-0.6,6.3-1.3,12.6-1.9,18.9c-0.6,6.2-1.3,12.5-1.9,18.7c-0.3,2.8-0.6,5.6-0.9,8.5c0,0.1,0,0.1,0,0.2
		c-0.4,4.5-0.3,8.7-0.4,13.2c0,0.5,0,1,0.2,1.4c0.4,0.6,1.1,0.7,1.8,0.8c2.3,0.3,4.6,0.5,7,0.8c0.4,0,0.6-0.3,0.7-0.6
		c1-6.9,1.5-8.7,2.3-13.9c0,0,0,0,0-0.1c0,0,0-0.1,0-0.1c0.4-2,4-21.2,5.3-28"/>
	<path class="st0" d="M217.7,87.1c0,0,17.6,14.4,41.5,0"/>
	<path class="st0" d="M218.6,140.1c0,0,17.4-6.2,39.7,0"/>
	<line class="st1" x1="218.3" y1="130.7" x2="214.9" y2="107.3"/>
	<line class="st1" x1="258.6" y1="130.7" x2="262" y2="107.3"/>
	<path class="st2" d="M255.3,0.1c-3.9,0-29.8,0-33.7,0c-2.9,20.3-12.6,39.1-13.6,59.8c8.8,4.4,19.4,6.5,28,1.9
		c0.8-2.4,1.7-9,2.4-13.4c0.7,4.4,1.5,11,2.4,13.4c8.6,4.6,19.3,2.5,28-1.9C267.9,39.3,258.3,20.5,255.3,0.1"/>
	<path class="st1" d="M255.3,0.1c2.9,20.3,12.6,39.1,13.6,59.8c-8.8,4.4-19.4,6.5-28,1.9c-0.8-2.4-1.7-9-2.4-13.4
		c-0.7,4.4-1.5,11-2.4,13.4c-8.6,4.6-19.3,2.5-28-1.9c0.9-20.7,10.6-39.5,13.6-59.8H255.3z"/>
	<line class="st1" x1="220.1" y1="10.2" x2="256.7" y2="10.2"/>
	<path class="st1" d="M239.8,55.4c0,0,14.2,4.9,28.3-2.8"/>
	<path class="st1" d="M236.6,55.4c0,0-13.2,4.9-27.3-2.8"/>
	<path class="st2" d="M21.1,148.9c11.5,3,18.1,9.5,28.6,4.2c6.6-3.3,11-7.1,17-2.3c5.9,4.7,13.1,0.3,13.1,0.3s-1.1-16.1-2.3-24.6
		c-1.5-10.5-3.6-20.9-6.4-31.1c-1.4-5.1-2.9-10.2-4.6-15.2c-0.9-2.5-4.7-11.4-5.4-13.6c-0.2-0.7-0.4-1.4-0.5-2.1v0
		c0-0.1,0-0.3-0.1-0.4c-0.2-1.1-0.2-2.2-0.1-3.3c0.1-1.2,1.5-10.7,1.8-12.8c0.3-2.5,0.6-4.9,0.9-7.4c-1.3-2.6-1.1-5.7-0.8-8.6
		c0.6-5.3,1.7-10.3,2.8-15.5l-10.8-3.6l-3.3-4.8l0,0L32.2,7.6l-0.3,0l-3.1,5l-0.2,0.3l-0.1,0l-11.6,3.7C19.5,24,19.8,32,18,39.6
		c1,5.9,2.3,11.9,2.9,17.9c0.1,1.4,0.5,2.8,0.4,4.2c0,0.5-0.1,1.1-0.2,1.6c0,0.1,0,0.3-0.1,0.4c-0.1,0.8-0.3,1.6-0.6,2.4
		c-0.7,2.2-8.2,15.3-15,54.6c-1.4,8.3-3.6,21.3-5,31.1C6.9,156.9,11.1,146.3,21.1,148.9"/>
	<path class="st1" d="M1.6,144.5c6.4,5,9.5-5.5,19.6-2.9c11.5,3,18.1,9.5,28.6,4.2c6.6-3.3,11-7.1,17-2.3c5.9,4.7,12.6,0.3,12.6,0.3
		"/>
	<path class="st1" d="M21.1,148.9c11.5,3,18.1,9.5,28.6,4.2c6.6-3.3,11-7.1,17-2.3c5.9,4.7,13.1,0.3,13.1,0.3s-1.1-16.1-2.3-24.6
		c-1.5-10.5-3.6-20.9-6.4-31.1c-1.4-5.1-2.9-10.2-4.6-15.2c-0.9-2.5-4.7-11.4-5.4-13.6c-0.2-0.7-0.4-1.4-0.5-2.1v0
		c0-0.1,0-0.3-0.1-0.4c-0.2-1.1-0.2-2.2-0.1-3.3c0.1-1.2,1.5-10.7,1.8-12.8c0.3-2.5,0.6-4.9,0.9-7.4c-1.3-2.6-1.1-5.7-0.8-8.6
		c0.6-5.3,1.7-10.3,2.8-15.5l-10.8-3.6l-3.3-4.8l0,0L32.2,7.6l-0.3,0l-3.4,5.3l-11.6,3.7C19.5,24,19.8,32,18,39.6
		c1,5.9,2.3,11.9,2.9,17.9c0.1,1.4,0.5,2.8,0.4,4.2c0,0.5-0.1,1.1-0.2,1.6c0,0.1,0,0.3-0.1,0.4c-0.1,0.8-0.3,1.6-0.6,2.4
		c-0.7,2.2-8.2,15.3-15,54.6c-1.4,8.3-3.6,21.3-5,31.1C6.9,156.9,11.1,146.3,21.1,148.9z"/>
	<path class="st3" d="M21.1,63.3c0,0,18.9,9.4,39.6,0"/>
	<path class="st1" d="M32,7.6c0,0,1.5,7.9,9.6,7.9c8.1,0,9.6-7.4,9.6-7.4"/>
	<polyline class="st1" points="28.7,12.9 36.2,23.5 41.5,18.5 	"/>
	<polyline class="st1" points="54.4,12.9 46.9,23.5 41.5,18.5 	"/>
</g>
</svg>
