<?xml version="1.0" encoding="utf-8"?>
<!-- Generator: Adobe Illustrator 22.1.0, SVG Export Plug-In . SVG Version: 6.00 Build 0)  -->
<svg version="1.1" id="Слой_1" xmlns="http://www.w3.org/2000/svg" xmlns:xlink="http://www.w3.org/1999/xlink" x="0px" y="0px"
	 viewBox="0 0 256 193" style="enable-background:new 0 0 256 193;" xml:space="preserve">
<style type="text/css">
	.st0{fill:#CCCCCC;}
	.st1{fill:none;stroke:#010101;stroke-linecap:round;stroke-linejoin:round;stroke-miterlimit:10;}
	.st2{fill:#FFFFFF;}
	.st3{fill:none;stroke:#010101;stroke-miterlimit:10;}
	.st4{fill:none;stroke:#010101;stroke-linecap:round;stroke-linejoin:round;}
	.st5{fill:none;stroke:#010101;stroke-linecap:round;stroke-linejoin:round;stroke-dasharray:3.005,3.005;}
	.st6{fill:#07AE8B;}
</style>
<g id="delivery">
	<polygon class="st0" points="82.8,65.6 6.9,65.6 6.9,14.8 44.8,6.2 82.8,14.8 	"/>
	<polygon class="st1" points="82.8,65.6 6.9,65.6 6.9,14.8 44.8,6.2 82.8,14.8 	"/>
	<polygon class="st2" points="105.5,65.6 29.6,65.6 29.6,14.8 67.6,6.2 105.5,14.8 	"/>
	<polygon class="st3" points="105.5,65.6 29.6,65.6 29.6,14.8 67.6,6.2 105.5,14.8 	"/>
	<polygon class="st0" points="109.6,16.8 67.6,6.3 25.5,16.8 24.2,11.8 67.6,1 111,11.8 	"/>
	<polygon class="st1" points="109.6,16.8 67.6,6.3 25.5,16.8 24.2,11.8 67.6,1 111,11.8 	"/>
	<rect x="49.8" y="35.9" class="st0" width="35.6" height="29.7"/>
	<rect x="49.8" y="35.9" class="st1" width="35.6" height="29.7"/>
	<rect x="49.8" y="35.9" class="st2" width="35.6" height="8.6"/>
	<rect x="49.8" y="35.9" class="st3" width="35.6" height="8.6"/>
	<polygon class="st0" points="1.8,16.8 25.5,16.8 24.2,11.8 0.4,11.8 	"/>
	<polygon class="st1" points="1.8,16.8 25.5,16.8 24.2,11.8 0.4,11.8 	"/>
	<polygon class="st0" points="24.4,11.8 0.4,11.8 43.8,1 67.6,1 	"/>
	<polyline class="st1" points="24.4,11.8 0.4,11.8 43.8,1 67.6,1 24.4,11.8 	"/>
	<rect x="49.8" y="57.2" class="st2" width="8.3" height="8.3"/>
	<rect x="49.8" y="57.2" class="st3" width="8.3" height="8.3"/>
	<rect x="49.8" y="48.9" class="st2" width="8.3" height="8.3"/>
	<rect x="49.8" y="48.9" class="st3" width="8.3" height="8.3"/>
	<rect x="58.1" y="57.2" class="st2" width="8.3" height="8.3"/>
	<rect x="58.1" y="57.2" class="st3" width="8.3" height="8.3"/>
	<rect x="65.7" y="17.8" class="st0" width="3.7" height="8"/>
	<rect x="45.1" y="17.8" class="st0" width="3.7" height="8"/>
	<rect x="86.4" y="17.8" class="st0" width="3.7" height="8"/>
	<line class="st4" x1="17.3" y1="65.9" x2="17.3" y2="67.4"/>
	<path class="st5" d="M17.3,70.4v32.1c0,5.9,4.8,10.7,10.7,10.7h195.4c5.9,0,10.7,4.8,10.7,10.7v14"/>
	<line class="st4" x1="234" y1="139.3" x2="234" y2="140.8"/>
	<path class="st0" d="M234,134.1c-11.3,0-20.4,9.1-20.4,20.4s20.4,36.3,20.4,36.3s20.4-25,20.4-36.3S245.3,134.1,234,134.1
		 M234,162.1c-4.3,0-7.8-3.5-7.8-7.8s3.5-7.8,7.8-7.8c4.3,0,7.8,3.5,7.8,7.8S238.3,162.1,234,162.1"/>
	<path class="st1" d="M234,134.1c-11.3,0-20.4,9.1-20.4,20.4s20.4,36.3,20.4,36.3s20.4-25,20.4-36.3S245.3,134.1,234,134.1z
		 M234,162.1c-4.3,0-7.8-3.5-7.8-7.8s3.5-7.8,7.8-7.8c4.3,0,7.8,3.5,7.8,7.8S238.3,162.1,234,162.1z"/>
	<path class="st0" d="M188.6,149.1c0,6-3.9,10.8-8.8,10.8c-4.8,0-8.8-4.8-8.8-10.8c0-6,3.9-10.8,8.8-10.8
		C184.6,138.3,188.6,143.1,188.6,149.1"/>
	<path class="st1" d="M188.6,149.1c0,6-3.9,10.8-8.8,10.8c-4.8,0-8.8-4.8-8.8-10.8c0-6,3.9-10.8,8.8-10.8
		C184.6,138.3,188.6,143.1,188.6,149.1z"/>
	<path class="st0" d="M104.3,149.1c0,6-3.9,10.8-8.8,10.8c-4.8,0-8.8-4.8-8.8-10.8c0-6,3.9-10.8,8.8-10.8
		C100.3,138.3,104.3,143.1,104.3,149.1"/>
	<path class="st1" d="M104.3,149.1c0,6-3.9,10.8-8.8,10.8c-4.8,0-8.8-4.8-8.8-10.8c0-6,3.9-10.8,8.8-10.8
		C100.3,138.3,104.3,143.1,104.3,149.1z"/>
	<path class="st2" d="M178.4,112.2v5.2c0,0.5-0.1,0.9-0.3,1.3c-0.5,0.9-1.5,1.6-2.6,1.6h-0.9c-1.6,0-2.9-1.3-2.9-2.9v-5.2
		c0-0.5,0.2-1,0.4-1.5v0c0.5-0.8,1.4-1.4,2.5-1.4h0.9C177.1,109.3,178.4,110.6,178.4,112.2"/>
	<path class="st3" d="M178.4,112.2v5.2c0,0.5-0.1,0.9-0.3,1.3c-0.5,0.9-1.5,1.6-2.6,1.6h-0.9c-1.6,0-2.9-1.3-2.9-2.9v-5.2
		c0-0.5,0.2-1,0.4-1.5v0c0.5-0.8,1.4-1.4,2.5-1.4h0.9C177.1,109.3,178.4,110.6,178.4,112.2z"/>
	<path class="st6" d="M178.1,118.6c-0.5,0.9-1.5,1.6-2.6,1.6h-0.9c-1.6,0-2.9-1.3-2.9-2.9v-5.2c0-0.5,0.2-1,0.4-1.5
		C172.2,111,173.4,118.1,178.1,118.6"/>
	<path class="st2" d="M147.1,147.8c0,0.7-0.1,1.4-0.2,2.1h40.2c3.4,0,6.2-2.8,6.2-6.2c0-0.3,0-0.5,0-0.8c0-1.7,0-3.4,0-4.8
		c0-2.3-0.8-4.3-1.7-5.9c-1.1-2.1-2.4-3.4-2.4-3.4l-2.7-2.1l-8.9-7.2l-10.6-23h0c-0.4-1.8-0.9-3.4-1.4-4.8c-0.1-0.2-0.1-0.3-0.2-0.5
		c-1.8-4.1-6.4-6.9-11.6-6.9h-0.2c0,0,0,0,0,0h-47.2v37l1.1,0c0.1,3.7,0.1,9.6,0,13c-0.1,5.3,0.8,15.8,0.8,15.8H133
		c-0.1-0.7-0.2-1.4-0.2-2.1"/>
	<path class="st3" d="M147.1,147.8c0,0.7-0.1,1.4-0.2,2.1h40.2c3.4,0,6.2-2.8,6.2-6.2c0-0.3,0-0.5,0-0.8c0-1.7,0-3.4,0-4.8
		c0-2.3-0.8-4.3-1.7-5.9c-1.1-2.1-2.4-3.4-2.4-3.4l-2.7-2.1l-8.9-7.2l-10.6-23h0c-0.4-1.8-0.9-3.4-1.4-4.8c-0.1-0.2-0.1-0.3-0.2-0.5
		c-1.8-4.1-6.4-6.9-11.6-6.9h-0.2c0,0,0,0,0,0h-47.2v37l1.1,0c0.1,3.7,0.1,9.6,0,13c-0.1,5.3,0.8,15.8,0.8,15.8H133
		c-0.1-0.7-0.2-1.4-0.2-2.1"/>
	<path class="st2" d="M172,118h-31.5c-0.7,0-1.4-0.4-1.7-1.1L131,99.6c-0.3-0.6,0.2-1.2,0.8-1.2H165c0.7,0,1.4,0.4,1.7,1.1l5.6,12.8
		l1.4,3.2C174.2,116.6,173.4,118,172,118"/>
	<path class="st3" d="M172,118h-31.5c-0.7,0-1.4-0.4-1.7-1.1L131,99.6c-0.3-0.6,0.2-1.2,0.8-1.2H165c0.7,0,1.4,0.4,1.7,1.1l5.6,12.8
		l1.4,3.2C174.2,116.6,173.4,118,172,118z"/>
	<path class="st2" d="M127.3,101.5L134,118h-11.5c0,0-2.4-0.4-2.7-5.2c-0.3-5.2-0.3-14.1-0.3-14.1l5.1,0
		C126.5,99,126.8,100.1,127.3,101.5"/>
	<path class="st3" d="M127.3,101.5L134,118h-11.5c0,0-2.4-0.4-2.7-5.2c-0.3-5.2-0.3-14.1-0.3-14.1l5.1,0
		C126.5,99,126.8,100.1,127.3,101.5z"/>
	<path class="st0" d="M113.6,142.9h79.7c0,0.3,0,0.5,0,0.8c0,3.4-2.9,6.2-6.5,6.2h-73.2"/>
	<path class="st1" d="M113.6,142.9h79.7c0,0.3,0,0.5,0,0.8c0,3.4-2.9,6.2-6.5,6.2h-73.2"/>
	<path class="st2" d="M127.1,109.3h-0.9c-1,0-2,0.6-2.5,1.4v0c-0.3,0.4-0.4,0.9-0.4,1.5v5.2c0,1.6,1.3,2.9,2.9,2.9h0.9
		c1.1,0,2.1-0.7,2.6-1.6c0.2-0.4,0.3-0.8,0.3-1.3v-5.2C130,110.6,128.7,109.3,127.1,109.3"/>
	<path class="st3" d="M127.1,109.3h-0.9c-1,0-2,0.6-2.5,1.4v0c-0.3,0.4-0.4,0.9-0.4,1.5v5.2c0,1.6,1.3,2.9,2.9,2.9h0.9
		c1.1,0,2.1-0.7,2.6-1.6c0.2-0.4,0.3-0.8,0.3-1.3v-5.2C130,110.6,128.7,109.3,127.1,109.3z"/>
	<path class="st0" d="M166.7,96.5h-38.6c0,0-0.1-2.4-0.2-5.3h37.2c0.1,0.2,0.2,0.3,0.2,0.5C165.9,93.1,166.4,94.7,166.7,96.5"/>
	<path class="st2" d="M191.7,132.2c-0.2,0.4-0.5,0.6-0.8,0.6l-5.2,1c-0.4,0.1-0.8-0.7-0.7-1.5l0.5-3.5l0-0.1l0.1-0.7
		c0.1-0.6,0.4-1.1,0.7-1.2l0.3-0.1l2.7,2.2C189.3,128.8,190.6,130.1,191.7,132.2"/>
	<path class="st3" d="M191.7,132.2c-0.2,0.4-0.5,0.6-0.8,0.6l-5.2,1c-0.4,0.1-0.8-0.7-0.7-1.5l0.5-3.5l0-0.1l0.1-0.7
		c0.1-0.6,0.4-1.1,0.7-1.2l0.3-0.1l2.7,2.2C189.3,128.8,190.6,130.1,191.7,132.2z"/>
	<path class="st3" d="M157.3,142.9c0,0.5,0,1.1-0.1,1.5c-0.2,3-3.3,5.5-3.3,5.5h-47.6V84.2h13.2c4.6,0,8.4,3.8,8.4,8.4v4.6
		c0,0,6.1,14.4,8.9,20.8c0.7,1.6,1.2,2.7,1.3,2.9c0.6,1.2,14.9,8.4,17.2,10.5C156.8,132.6,157.4,138.7,157.3,142.9z"/>
	<path class="st2" d="M163.2,135.7l-6.4-0.6h0l-3.4-0.3c-1.2-0.1-2.1-1-2.3-2.2l-0.8-4.3c0-0.1,0-0.1,0-0.2v0c0-0.9,0.8-1.6,1.7-1.4
		l10,2c0.6,0.1,1.1,0.6,1.3,1.2l1.2,4.3C164.6,135.1,164,135.8,163.2,135.7"/>
	<path class="st3" d="M163.2,135.7l-6.4-0.6h0l-3.4-0.3c-1.2-0.1-2.1-1-2.3-2.2l-0.8-4.3c0-0.1,0-0.1,0-0.2v0c0-0.9,0.8-1.6,1.7-1.4
		l10,2c0.6,0.1,1.1,0.6,1.3,1.2l1.2,4.3C164.6,135.1,164,135.8,163.2,135.7z"/>
	<path class="st2" d="M167.1,129.1h15.3c0.5,0,0.9,0.7,0.8,1.4l-0.5,5.3c-0.1,0.8-0.5,1.4-1,1.4H169c-0.8,0-1.5-0.8-1.8-2l-0.9-4.5
		C166.1,129.9,166.5,129.1,167.1,129.1"/>
	<path class="st3" d="M167.1,129.1h15.3c0.5,0,0.9,0.7,0.8,1.4l-0.5,5.3c-0.1,0.8-0.5,1.4-1,1.4H169c-0.8,0-1.5-0.8-1.8-2l-0.9-4.5
		C166.1,129.9,166.5,129.1,167.1,129.1z"/>
	<path class="st2" d="M113.6,84.2v65.7H43.9c-2.2,0-3.9-1.8-3.9-3.9V88.1c0-2.2,1.8-3.9,3.9-3.9H113.6z"/>
	<path class="st0" d="M40,142.9v3.1c0,2.2,1.8,3.9,3.9,3.9h69.8v-7H40z"/>
	<path class="st3" d="M113.6,84.2v65.7H43.9c-2.2,0-3.9-1.8-3.9-3.9V88.1c0-2.2,1.8-3.9,3.9-3.9H113.6z"/>
	<line class="st1" x1="40" y1="142.9" x2="113.6" y2="142.9"/>
	<path class="st3" d="M79.3,93.6v22c0,1.3,1.1,2.4,2.4,2.4h22.8c1.3,0,2.4-1.1,2.4-2.4v-22c0-1.3-1.1-2.4-2.4-2.4H81.8
		C80.4,91.1,79.3,92.2,79.3,93.6z"/>
	<path class="st3" d="M71.9,91.1H49.1c-1.3,0-2.4,1.1-2.4,2.4v22c0,1.3,1.1,2.4,2.4,2.4h22.8c1.3,0,2.4-1.1,2.4-2.4v-22
		C74.3,92.2,73.2,91.1,71.9,91.1z"/>
	<line class="st3" x1="46.6" y1="125.4" x2="107" y2="125.4"/>
	<path class="st0" d="M148.5,149.1c0,6-3.9,10.8-8.8,10.8c-4.8,0-8.8-4.8-8.8-10.8c0-6,3.9-10.8,8.8-10.8
		C144.6,138.3,148.5,143.1,148.5,149.1"/>
	<path class="st1" d="M148.5,149.1c0,6-3.9,10.8-8.8,10.8c-4.8,0-8.8-4.8-8.8-10.8c0-6,3.9-10.8,8.8-10.8
		C144.6,138.3,148.5,143.1,148.5,149.1z"/>
	<path class="st0" d="M64.2,149.1c0,6-3.9,10.8-8.8,10.8c-4.8,0-8.8-4.8-8.8-10.8c0-6,3.9-10.8,8.8-10.8
		C60.3,138.3,64.2,143.1,64.2,149.1"/>
	<path class="st1" d="M64.2,149.1c0,6-3.9,10.8-8.8,10.8c-4.8,0-8.8-4.8-8.8-10.8c0-6,3.9-10.8,8.8-10.8
		C60.3,138.3,64.2,143.1,64.2,149.1z"/>
</g>
</svg>
