<?xml version="1.0" encoding="utf-8"?>
<!-- Generator: Adobe Illustrator 22.1.0, SVG Export Plug-In . SVG Version: 6.00 Build 0)  -->
<svg version="1.1" id="Слой_1" xmlns="http://www.w3.org/2000/svg" xmlns:xlink="http://www.w3.org/1999/xlink" x="0px" y="0px"
	 viewBox="0 0 191 191" style="enable-background:new 0 0 191 191;" xml:space="preserve">
<style type="text/css">
	.st0{fill:#FFFFFF;}
	.st1{fill:#CCCCCC;}
	.st2{fill:none;stroke:#010101;stroke-miterlimit:10;}
</style>
<g id="optimazer">
	<path class="st0" d="M68.8,129.1l-0.6-2.5c-2.6,0.5-5.4,0.5-7.4,0.1c-0.7-0.1-1.2-0.8-1.2-1.5l0.1-2.5c0-0.9,0.9-1.6,1.8-1.4
		c2,0.3,4.4,0.4,6.8-0.2c2.5-0.6,4.2-1.9,3.8-3.6c-0.4-1.6-2-2.2-5.8-2.3c-5.3-0.2-9.4-1.5-10.5-5.9c-0.9-4,1.3-7.7,6.1-9.7L61.4,97
		c-0.2-0.8,0.3-1.6,1.1-1.8l1.5-0.3c0.8-0.2,1.6,0.3,1.8,1.1l0.5,2.3c2.4-0.5,4.3-0.5,5.8-0.3c0.8,0.1,1.4,0.8,1.3,1.5l-0.1,2.3
		c0,0.9-0.8,1.6-1.7,1.4c-1.4-0.2-3.3-0.3-5.7,0.3c-3,0.7-3.6,2.1-3.3,3.3c0.3,1.4,2.3,1.9,6.5,2.2c6,0.4,8.8,2.1,9.8,6.3
		c0.9,3.8-1.1,7.9-6.4,10l0.7,2.8c0.2,0.8-0.3,1.6-1.1,1.8l-1.5,0.3C69.8,130.4,69,129.9,68.8,129.1"/>
	<path class="st1" d="M81.3,84.4c-0.1-0.5-0.4-1-0.8-1.4l-8.1-7.5c-0.4-0.4-0.9-0.5-1.5-0.4l-22.7,3.8c-0.2,0-0.5,0.2-0.6,0.4
		l-5.4,12c-0.2,0.4-0.2,0.8-0.1,1.2l11.4,53.7c0.1,0.4,0.5,0.7,0.9,0.6l37.4-7.8c0.5-0.1,0.8-0.6,0.7-1L81.3,84.4z M62,87.9
		c-1.7,0.1-3.2-1.2-3.3-2.9c-0.1-1.7,1.2-3.2,2.9-3.3c1.7-0.1,3.2,1.2,3.3,2.9C65,86.3,63.7,87.8,62,87.9"/>
	<path class="st2" d="M81.3,84.4c-0.1-0.5-0.4-1-0.8-1.4l-8.1-7.5c-0.4-0.4-0.9-0.5-1.5-0.4l-22.7,3.8c-0.2,0-0.5,0.2-0.6,0.4
		l-5.4,12c-0.2,0.4-0.2,0.8-0.1,1.2l11.4,53.7c0.1,0.4,0.5,0.7,0.9,0.6l37.4-7.8c0.5-0.1,0.8-0.6,0.7-1L81.3,84.4z M62,87.9
		c-1.7,0.1-3.2-1.2-3.3-2.9c-0.1-1.7,1.2-3.2,2.9-3.3c1.7-0.1,3.2,1.2,3.3,2.9C65,86.3,63.7,87.8,62,87.9z"/>
	<path class="st2" d="M59.9,87.3c5.9-7.7,5-15.3,2.2-19.7c-2.3-3.6-6.1-5.5-8.4-4.5c-2.8,1.3-3.1,6.9-0.9,15"/>
	<path class="st0" d="M71.2,112.1l-2.9,3.6l10.3-2.3l0.7,3.1l-13.4,3c-0.7,0.9-1.1,1.8-0.9,2.9c0.4,1.8,2,2.5,4.6,1.9
		c2.2-0.5,3.8-1.9,4.8-4.4l4.7,1.9c-1.5,3.9-5.1,6.6-9,7.4c-5,1.1-9.3-0.5-10.2-4.4c-0.3-1.3-0.1-2.7,0.5-4l-4.1,0.9l-0.7-3.1
		l6.6-1.5l3-3.6l-10.2,2.3l-0.7-3.1l13.3-3c0.8-1.1,1-2,0.8-3c-0.3-1.6-2-2.4-4.2-1.9c-2.1,0.5-3.6,2.1-4.5,4.4l-4.6-1.8
		c1.4-3.9,4.5-6.4,8.4-7.3c5.2-1.1,9.1,0.8,10,4.5c0.3,1.3,0.1,2.8-0.4,3.9l4-0.9l0.7,3.1L71.2,112.1z"/>
	<path class="st2" d="M11.7,83.3l10.9,9.2c1.5-34.9,27.6-63.5,61.4-68.8l9.3-11.1L84,1.6C38,7.1,2.1,45.5,0.6,92.7L11.7,83.3z"/>
	<path class="st2" d="M101.1,12.7L92.5,23c1,0,1.9-0.1,2.9-0.1c36.9,0,67.4,27.5,72.2,63.1l11.6,9.8l10.6-9
		c-4.5-48.2-45.1-86-94.5-86c-1.4,0-2.8,0-4.2,0.1L101.1,12.7z"/>
	<path class="st2" d="M179.2,103.5l-11-9.3c0,0.5,0,1,0,1.5c0,39.5-31.4,71.6-70.7,72.8l-8.9,10.6l9.6,11.4
		c51.1-1.5,92-43.4,92-94.8c0-0.5,0-1,0-1.5L179.2,103.5z"/>
	<path class="st2" d="M80.9,179.1l9.1-10.7c-36.2-2.7-65-31.7-67.3-68l-11-9.3l-11,9.3C3,149,41.9,188.1,90.6,190.5L80.9,179.1z"/>
	<path class="st1" d="M105.8,120l-1.5-0.6c-2.1-0.7-3.1-3-2.4-5.1l9.3-25.6l8.9,3.3l-9.3,25.6C110.2,119.7,107.9,120.8,105.8,120"/>
	<path class="st2" d="M105.8,120l-1.5-0.6c-2.1-0.7-3.1-3-2.4-5.1l9.3-25.6l8.9,3.3l-9.3,25.6C110.2,119.7,107.9,120.8,105.8,120z"
		/>
	<path class="st1" d="M145.3,78.9c-4.5,12.4-18.2,18.7-30.5,14.2C102.4,88.7,96,75,100.5,62.6c4.5-12.4,18.2-18.7,30.5-14.2
		C143.4,52.9,149.8,66.6,145.3,78.9"/>
	<path class="st2" d="M145.3,78.9c-4.5,12.4-18.2,18.7-30.5,14.2C102.4,88.7,96,75,100.5,62.6c4.5-12.4,18.2-18.7,30.5-14.2
		C143.4,52.9,149.8,66.6,145.3,78.9z"/>
	<path class="st0" d="M138.7,76.6c-3.2,8.7-12.8,13.2-21.6,10.1c-8.7-3.2-13.2-12.8-10.1-21.6c3.2-8.7,12.8-13.2,21.6-10.1
		C137.4,58.1,141.9,67.8,138.7,76.6"/>
	<path class="st1" d="M121,80.2c-0.6,0-1.2-0.2-1.6-0.7l-7-6.9l3.2-3.2l5.1,5.1l8.3-11.2l3.7,2.7l-9.9,13.3c-0.4,0.5-1,0.9-1.7,0.9
		C121.1,80.2,121,80.2,121,80.2"/>
</g>
</svg>
