<?xml version="1.0" encoding="utf-8"?>
<!-- Generator: Adobe Illustrator 22.1.0, SVG Export Plug-In . SVG Version: 6.00 Build 0)  -->
<svg version="1.1" id="Слой_1" xmlns="http://www.w3.org/2000/svg" xmlns:xlink="http://www.w3.org/1999/xlink" x="0px" y="0px"
	 viewBox="0 0 278 183" style="enable-background:new 0 0 278 183;" xml:space="preserve">
<style type="text/css">
	.st0{fill:#FFFFFF;}
	.st1{fill:none;stroke:#010101;stroke-linecap:round;stroke-linejoin:round;stroke-miterlimit:10;}
	.st2{fill:#CCCCCC;}
</style>
<g id="repeat">
	<path class="st0" d="M139.2,0.4H4.4C2.3,0.4,0.7,2,0.7,4v97c0,2,1.6,3.7,3.7,3.7h14.5L15.2,122l22.2-17.3h101.8
		c2,0,3.7-1.6,3.7-3.7V4C142.9,2,141.3,0.4,139.2,0.4"/>
	<path class="st1" d="M139.2,0.4H4.4C2.3,0.4,0.7,2,0.7,4v97c0,2,1.6,3.7,3.7,3.7h14.5L15.2,122l22.2-17.3h101.8
		c2,0,3.7-1.6,3.7-3.7V4C142.9,2,141.3,0.4,139.2,0.4z"/>
	<path class="st2" d="M52.1,84.1c0,0,10.4,2.8,23.4,2.8s23.4-2.8,23.4-2.8l0,0c1.4,2.1,3.2,3.4,5.6,3.6c1.3,4.1,3.1,8.5,3.1,8.5
		S114,97,118,93.3c-0.6-2.4-0.9-3.6-1.9-7.9c5.3-10.3-1.5-23.6-5.4-36c-2.7-8.6-4.6-18-8.1-23.2c-3.4-5-10.2-6.1-15.2-8.9L83.7,11
		c-4.9,0.9-12.2,0.6-16.5,0l-3.7,6.3c-4.9,2.8-11.8,3.9-15.2,8.9c-3.5,5.2-5.4,14.5-8.1,23.2c-3.9,12.4-10.7,25.7-5.4,36
		c-1,4.3-1.4,5.5-1.9,7.9c4.1,3.7,10.4,2.9,10.4,2.9s1.8-4.4,3.1-8.5C49.9,87.1,52.1,84.1,52.1,84.1"/>
	<path class="st1" d="M67.2,11c2.4,4.2,5.7,5.7,5.7,5.7"/>
	<path class="st1" d="M83.6,11c-2.4,4.2-5.6,5.7-5.6,5.7"/>
	<path class="st1" d="M63.5,17.3c-4.9,2.8-11.8,3.9-15.2,8.9c-3.5,5.2-5.4,14.5-8.1,23.2c-3.9,12.4-10.7,25.7-5.4,36
		c-1,4.3-1.4,5.5-1.9,7.9c4.1,3.7,10.4,2.9,10.4,2.9s1.8-4.4,3.1-8.5c13.3-1.3,8.4-35.7,13.8-48.8"/>
	<path class="st1" d="M36.5,86.5c1.6,0.9,4.4,2.1,7.7,1.6"/>
	<path class="st1" d="M72.9,16.7l-7.5,6.9c-0.1,0.1-0.2,0-0.2-0.1l-1.7-6.2l3.7-6.3c4.2,0.6,11.6,0.9,16.5,0l3.7,6.3l-1.7,6.2
		c0,0.1-0.2,0.1-0.2,0.1L78,16.7H72.9z"/>
	<path class="st1" d="M87.4,17.3c4.9,2.8,11.8,3.9,15.2,8.9c3.5,5.2,5.4,14.5,8.1,23.2c3.9,12.4,10.7,25.7,5.4,36
		c1,4.3,1.4,5.5,1.9,7.9c-4.1,3.7-10.4,2.9-10.4,2.9s-1.8-4.4-3.1-8.5c-13.3-1.3-8.4-35.7-13.8-48.8"/>
	<path class="st1" d="M98.9,84.1c0,0-10.4,2.8-23.4,2.8c-13,0-23.4-2.8-23.4-2.8"/>
	<path class="st1" d="M114.5,86.5c-1.6,0.9-4.4,2.1-7.7,1.6"/>
	<line class="st1" x1="78" y1="16.7" x2="78" y2="86.5"/>
	<line class="st1" x1="72.9" y1="16.7" x2="72.9" y2="86.5"/>
	<path class="st0" d="M265.9,182.5H133.7c-1.7,0-3-1.3-3-3V84.6c0-1.7,1.3-3,3-3h132.2c1.7,0,3,1.3,3,3v94.9
		C268.9,181.2,267.6,182.5,265.9,182.5"/>
	<path class="st1" d="M265.9,182.5H133.7c-1.7,0-3-1.3-3-3V84.6c0-1.7,1.3-3,3-3h132.2c1.7,0,3,1.3,3,3v94.9
		C268.9,181.2,267.6,182.5,265.9,182.5z"/>
	<rect x="142" y="108" class="st2" width="115.7" height="17.1"/>
	<rect x="142" y="131.2" class="st2" width="115.7" height="17.1"/>
	<rect x="142" y="154.4" class="st2" width="115.7" height="17.1"/>
	<line class="st1" x1="130.7" y1="97" x2="268.9" y2="97"/>
	<path class="st0" d="M154.4,89.9h-1.6c-1.2,0-2.2-1-2.2-2.2V75.5c0-1.2,1-2.2,2.2-2.2h1.6c1.2,0,2.2,1,2.2,2.2v12.3
		C156.6,89,155.6,89.9,154.4,89.9"/>
	<path class="st1" d="M154.4,89.9h-1.6c-1.2,0-2.2-1-2.2-2.2V75.5c0-1.2,1-2.2,2.2-2.2h1.6c1.2,0,2.2,1,2.2,2.2v12.3
		C156.6,89,155.6,89.9,154.4,89.9z"/>
	<path class="st0" d="M247.2,89.9h-1.6c-1.2,0-2.2-1-2.2-2.2V75.5c0-1.2,1-2.2,2.2-2.2h1.6c1.2,0,2.2,1,2.2,2.2v12.3
		C249.4,89,248.4,89.9,247.2,89.9"/>
	<path class="st1" d="M247.2,89.9h-1.6c-1.2,0-2.2-1-2.2-2.2V75.5c0-1.2,1-2.2,2.2-2.2h1.6c1.2,0,2.2,1,2.2,2.2v12.3
		C249.4,89,248.4,89.9,247.2,89.9z"/>
	<line class="st1" x1="165.1" y1="108" x2="165.1" y2="125.1"/>
	<line class="st1" x1="188.3" y1="108" x2="188.3" y2="125.1"/>
	<line class="st1" x1="211.4" y1="108" x2="211.4" y2="125.1"/>
	<line class="st1" x1="234.5" y1="108" x2="234.5" y2="125.1"/>
	<line class="st1" x1="165.1" y1="131.2" x2="165.1" y2="148.3"/>
	<line class="st1" x1="188.3" y1="131.2" x2="188.3" y2="148.3"/>
	<line class="st1" x1="211.4" y1="131.2" x2="211.4" y2="148.3"/>
	<line class="st1" x1="234.5" y1="131.2" x2="234.5" y2="148.3"/>
	<line class="st1" x1="165.1" y1="154.4" x2="165.1" y2="171.5"/>
	<line class="st1" x1="188.3" y1="154.4" x2="188.3" y2="171.5"/>
	<line class="st1" x1="211.4" y1="154.4" x2="211.4" y2="171.5"/>
	<line class="st1" x1="234.5" y1="154.4" x2="234.5" y2="171.5"/>
	<path class="st0" d="M276.2,139.8c0,14.4-11.6,26-26,26c-14.4,0-26-11.6-26-26c0-14.4,11.6-26,26-26
		C264.6,113.8,276.2,125.4,276.2,139.8"/>
	<path class="st1" d="M276.2,139.8c0,14.4-11.6,26-26,26c-14.4,0-26-11.6-26-26c0-14.4,11.6-26,26-26
		C264.6,113.8,276.2,125.4,276.2,139.8z"/>
	<path class="st2" d="M248,151.7c-0.8,0-1.7-0.3-2.3-0.9l-9.9-9.8l4.5-4.6l7.2,7.2l11.7-15.8l5.2,3.9l-14,18.7
		c-0.6,0.8-1.4,1.2-2.3,1.3C248.2,151.7,248.1,151.7,248,151.7"/>
	<path class="st1" d="M130.7,163.6H57.1c-2.8,0-5-2.2-5-5v-53.9"/>
	<polygon class="st0" points="130,163.6 119.3,158 119.3,169.1 	"/>
	<polygon class="st1" points="130,163.6 119.3,158 119.3,169.1 	"/>
</g>
</svg>
