<?xml version="1.0" encoding="utf-8"?>
<!-- Generator: Adobe Illustrator 22.1.0, SVG Export Plug-In . SVG Version: 6.00 Build 0)  -->
<svg version="1.1" id="Слой_1" xmlns="http://www.w3.org/2000/svg" xmlns:xlink="http://www.w3.org/1999/xlink" x="0px" y="0px"
	 viewBox="0 0 200 189" style="enable-background:new 0 0 200 189;" xml:space="preserve">
<style type="text/css">
	.st0{fill:none;stroke:#010101;stroke-linecap:round;stroke-linejoin:round;stroke-miterlimit:10;}
	.st1{fill:none;stroke:#010101;stroke-miterlimit:10;}
	.st2{fill:#CCCCCC;}
	.st3{fill:none;stroke:#FFFFFF;stroke-width:3;stroke-miterlimit:10;}
</style>
<g id="contact">
	<path class="st0" d="M118.7,172c-10.1-4.8-20.4-13.2-20-16.1c0.4-2.9,7.7,1,13.6,4.2"/>
	<path class="st1" d="M111.8,159.9c-3-4.1-6.6-8.7-4.8-11.2c1.9-2.6,14.3,10.4,14.3,10.4"/>
	<path class="st1" d="M122.3,159c0,0-4.9-4.2-5.5-8c-0.6-4.5,9.6,2.2,15.7,7.2"/>
	<path class="st1" d="M128.3,169.5c-4.3,1.7-9.3,2.9-14.4,2.8c-5.1-0.1-27.5-12.9-30.1-9.4c-0.3,3.3,22.5,15.8,29.7,18.1
		c18.7,0.2,37.2-2.5,55.9-2.2c9.7-0.1,18.6,3.9,27.3,8.9l3.4-25.4c-5.8-0.4-11.5-0.2-17.1-1.7c-0.3-0.1-0.5-0.2-0.7-0.3
		c-11.7-5.8-21.8-9.4-31.8-7.4c-4.9,1-9.2,3.9-14.2,4.8c-4.9,0.9-30.1,1.4-30.9,5c-0.4,1.8,3.8,3,9.3,4.2s16.4,3.2,26,3.1
		c3.1,0.3,6.2,0.6,8.7,1.8"/>
	<path class="st0" d="M66.2,6.1c19.9,1,38.9,3.3,38.9,3.3s0.7,2.4-3.7,3.1c-4.8,0.7-17.1,0.3-17.1,0.3"/>
	<path class="st0" d="M67.9,12.4c0,0,18.1,0,20.5,0.6c1.9,0.5,11.6,7.5,18,12c1.2,0.9,2.1,2.7-2.8,2.1C99.3,26.7,88.2,20.2,86,20
		c-2.6-0.3-16.1-0.1-16.1-0.1"/>
	<path class="st0" d="M77.7,20.3c0,0,6.4,9.6,7.2,12.1c0.8,2.6,1.5,9.9,1.3,19.3c0,2.3-3.4,0.8-4-1.5c-1.6-5.8-2-12.4-5.6-16.9
		c-2.6-3.2-5.5-5.7-8.7-6.8c-5.2-1.9-12,1.8-10.2,10.4c0.8,3.8,15.8,8.8,22,11.7c1.8,1,3.1,2.6,3.1,4.8c-0.2,2-2.5,2-4.1,1.8
		c-3-0.4-36.1-6.2-59.5-22c-7.6-3.4-19.3-7-19.3-7s4.8-15.5,17-23.9c11.1,11.8,20.3,11.5,20.3,11.5S53.3,3.7,60.9,2.2
		c14.4-2.9,32.5,2,32.5,2s0.4,4-6.5,3.3"/>
	<rect x="54.4" y="70.6" class="st2" width="62.8" height="69.1"/>
	<rect x="54.4" y="70.6" class="st0" width="62.8" height="69.1"/>
	<path class="st0" d="M77.2,54.9c-7.7,6.2-8.5,20-8.5,20"/>
	<path class="st0" d="M102.9,74.9c0,0-1.9-22.7-16.7-23.1"/>
	<line class="st3" x1="72.1" y1="110.9" x2="99.4" y2="110.9"/>
	<line class="st3" x1="65.3" y1="99.5" x2="106.3" y2="99.5"/>
</g>
</svg>
