<?xml version="1.0" encoding="utf-8"?>
<!-- Generator: Adobe Illustrator 22.1.0, SVG Export Plug-In . SVG Version: 6.00 Build 0)  -->
<svg version="1.1" id="Слой_1" xmlns="http://www.w3.org/2000/svg" xmlns:xlink="http://www.w3.org/1999/xlink" x="0px" y="0px"
	 viewBox="0 0 221 190" style="enable-background:new 0 0 221 190;" xml:space="preserve">
<style type="text/css">
	.st0{fill:none;stroke:#010101;stroke-linecap:round;stroke-linejoin:round;stroke-miterlimit:10;}
	.st1{fill:#CCCCCC;}
	.st2{fill:#FFFFFF;}
</style>
<g id="support">
	<path class="st0" d="M86.8,69.4c-0.2,8.8-2,33.5-15.1,34.1c-7.7,0.4-13.3-4.8-16.9-9.7"/>
	<path class="st0" d="M86.6,76.7c1.7,1.5,2.9,4.1,2.9,6.9c0,4.3-2.6,7.9-5.9,8.4"/>
	<path class="st0" d="M56.5,91.1c0,0,3.4,6.8,11.8,6.8"/>
	<path class="st0" d="M73.8,99.9h-3.6c-1,0-1.8-0.8-1.8-1.8v-0.3c0-1,0.8-1.8,1.8-1.8h3.6c1,0,1.8,0.8,1.8,1.8v0.3
		C75.5,99.1,74.7,99.9,73.8,99.9z"/>
	<path class="st0" d="M87.5,60.3c-3.9-20.3-52.4-22-48,17.4c-6.3,13.9-21.9,13.6-15.2,28.6c5.6,12.7-6.5,14.3-6.5,14.3
		s2.3,6.8,8.4,5.4"/>
	<path class="st0" d="M57,80.1c17-1.8,22.3-10.5,22.3-10.5s-1.6,5.1-8.1,10c9.8-2.9,14-7.6,15.7-10.2"/>
	<path class="st0" d="M87.5,89.7c2.2,6.8,17.4,7.5,12,15.2c-4,5.6-7.1,8.9,2.8,12.1c0,0,1.5,4.9-3.4,7.3"/>
	<path class="st0" d="M87.5,60.3c0,0,12.4,7.3,2,24.1"/>
	<path class="st0" d="M74.4,103.8v4.7l17.7,8.2c2.1,1,3.8,2.7,4.9,4.7l18.7,34.2"/>
	<path class="st0" d="M56.8,96.6l-0.8,11.9c0,0-12.3,3.2-19.2,6.5c-3.2,1.5-5.8,3.8-7.7,6.7c-7,10.7-22.2,35.9-24.6,41
		c-3.9,8.2-7.1,19.1,10.3,20.9c17.9,1.9,44.6,4.9,44.6,4.9l0-16L26.1,167l13.8-18.5"/>
	<path class="st0" d="M93.6,137.1c0,0,6.3,14.4,2,26.5c-2,5.7-3.1,19.4-3.1,19.4"/>
	<line class="st0" x1="96.3" y1="162.5" x2="111.2" y2="179.1"/>
	<line class="st0" x1="37.5" y1="168.9" x2="35.8" y2="154.9"/>
	<path class="st0" d="M50.3,110.6c0,0,8.2,11.5,20.6,11.6c10,0,7.6-11.2,7.6-11.2"/>
	<path class="st1" d="M185.8,182.1h-75l10.6-56.5c0.2-1.4,1.4-2.5,2.8-2.5h69.3c1.7,0,3.1,1.5,2.8,3.2L185.8,182.1z"/>
	<path class="st0" d="M185.8,182.1h-75l10.6-56.5c0.2-1.4,1.4-2.5,2.8-2.5h69.3c1.7,0,3.1,1.5,2.8,3.2L185.8,182.1z"/>
	<path class="st1" d="M93.1,182.1h92.6v2.3c0,2.5-2,4.6-4.6,4.6H86.8c-2.5,0-4.6-2-4.6-4.6V184"/>
	<path class="st0" d="M93.1,182.1h92.6v2.3c0,2.5-2,4.6-4.6,4.6H86.8c-2.5,0-4.6-2-4.6-4.6V184"/>
	<path class="st2" d="M61.2,185.1l12.5-1.2c0,0,9.4,3.1,11.7,3.9c2.3,0.8,7-2.1,8.2-4.1c1.3-2-10.4-7.4-10.4-7.4l7.6,0.8
		c0,0,8.6,2.2,9.4,0.4c0.8-1.8-13.5-5.4-13.5-5.4l-11.3-0.8L61,174.5L61.2,185.1z"/>
	<path class="st0" d="M59.2,175.6l15-4.4l12.4,0.8c0,0,14.2,3.6,13.5,5.4s-9.4-0.4-9.4-0.4l-7.6-0.8c0,0,11.6,5.4,10.4,7.4
		c-1.3,2-5.9,4.9-8.2,4.1s-11.7-3.9-11.7-3.9s-6.3,2.7-14.4,1.9"/>
	<path class="st0" d="M57.9,86.1c0,4.7-3,8.4-6.7,8.4s-6.7-3.8-6.7-8.4c0-4.7,3-8.4,6.7-8.4S57.9,81.4,57.9,86.1z"/>
	<path class="st0" d="M50.4,77.7c0,0-1.9-23.4,16.5-26.4c18.1-3,20.6,9,20.6,9"/>
	<path class="st2" d="M157.8,152.6c-0.4,2.9-2.6,5.3-5,5.3s-4-2.4-3.7-5.3c0.4-2.9,2.6-5.3,5-5.3S158.2,149.7,157.8,152.6"/>
	<path class="st0" d="M157.8,152.6c-0.4,2.9-2.6,5.3-5,5.3s-4-2.4-3.7-5.3c0.4-2.9,2.6-5.3,5-5.3S158.2,149.7,157.8,152.6z"/>
	<path class="st2" d="M219.7,51.7c0,27.8-22.6,50.4-50.4,50.4c-27.8,0-50.4-22.6-50.4-50.4c0-27.8,22.6-50.4,50.4-50.4
		C197.1,1.4,219.7,23.9,219.7,51.7"/>
	<path class="st0" d="M174.4,15.1c24-8.8,17.5,24,17.3,32.6c-0.1,7,3.2,11.4,3.9,19.1"/>
	<path class="st0" d="M175.9,51.7c0,0,7.1-4.7,9.1-14.2c1.7-8.3-1.2-16.1-5.2-19.5c-4-3.4-13.9-6.5-21.7-1.6
		c-5,3.1-6.9,8.8-6.9,14.5"/>
	<polyline class="st0" points="175.9,47.7 175.9,61.7 178.6,62.4 	"/>
	<polyline class="st0" points="161.9,57.8 161.9,61.7 159.2,62.5 	"/>
	<path class="st0" d="M151.3,31.2c-0.2,2.8,0,6.7,0,9.4c0,6.8,4.7,16.7,9.3,16.7c5,0,11.5-3.8,15.4-9.5"/>
	<path class="st2" d="M175.2,41.8c0,0,0.5-4.2,3.7-3.7c3.2,0.5,1.9,6.3-3,9.6"/>
	<path class="st0" d="M175.2,41.8c0,0,0.5-4.2,3.7-3.7c3.2,0.5,1.9,6.3-3,9.6"/>
	<path class="st0" d="M175.2,41.8c-5.1-4.6-1.9-10.3-5.9-14.9c-1.8-2-9.9-3.8-14.7-1.9c-3.1,1.2-2.9,3.8-3.3,6.2"/>
	<path class="st0" d="M159.3,20.9c1.5-1.7,4.7-4.3,11.1-4.1"/>
	<path class="st0" d="M170.9,24c1.2-0.6,3.7-1.5,7-1.9"/>
	<path class="st0" d="M175.2,31.5c1.3,0.2,3.8,0.5,6.8,0.1"/>
	<path class="st0" d="M188.4,43.2c0,0-2,10.9,0.1,18.9"/>
	<path class="st0" d="M184.8,46.3c0,0-3.2,6.6-1.8,14.4"/>
	<path class="st2" d="M205,102.1c-1-18.9-4.1-35.3-13.5-37.2l-13-2.6c0,0-3.8,16.1-17.4,14.9c-12.3-1.1-2-14.8-2-14.8l-11.5,3.1
		c-5.8,1.7-9.3,6.4-10.6,12.3c-0.7,3-3.6,20.5-4.2,24.3C132.9,102.1,190.1,111.5,205,102.1"/>
	<path class="st0" d="M204.2,88.1c-1.8-11.8-5.9-21.8-12.6-23.1l-13-2.6c0,0-3.8,16.1-17.4,14.9c-12.3-1.1-2-14.8-2-14.8l-11.5,3.1
		c-5.8,1.7-9.3,6.4-10.6,12.3c-0.3,1.3-1.2,6.4-2,11"/>
	<path class="st0" d="M219.7,51.7c0,27.8-22.6,50.4-50.4,50.4c-27.8,0-50.4-22.6-50.4-50.4c0-27.8,22.6-50.4,50.4-50.4
		C197.1,1.4,219.7,23.9,219.7,51.7z"/>
	<path class="st1" d="M128.5,39.4l-0.1-1.6c-0.2-3.1,0.9-6.3,3.6-9.6c2-2.3,3.5-4.3,3.5-6.4c0-2.1-1.4-3.5-4.5-3.7
		c-2,0-4.5,0.7-6,1.8l-2.1-6.7c2.2-1.3,5.9-2.5,10.2-2.5c8.1,0,11.7,4.5,11.7,9.5c0,4.6-2.9,7.7-5.2,10.3c-2.3,2.5-3.2,4.9-3.1,7.6
		v1.1H128.5z M126.9,47.9c0-3.2,2.3-5.6,5.4-5.6c3.3,0,5.4,2.3,5.5,5.6c0,3.2-2.2,5.6-5.5,5.6C129.1,53.4,126.9,51,126.9,47.9"/>
	<path class="st0" d="M128.5,39.4l-0.1-1.6c-0.2-3.1,0.9-6.3,3.6-9.6c2-2.3,3.5-4.3,3.5-6.4c0-2.1-1.4-3.5-4.5-3.7
		c-2,0-4.5,0.7-6,1.8l-2.1-6.7c2.2-1.3,5.9-2.5,10.2-2.5c8.1,0,11.7,4.5,11.7,9.5c0,4.6-2.9,7.7-5.2,10.3c-2.3,2.5-3.2,4.9-3.1,7.6
		v1.1H128.5z M126.9,47.9c0-3.2,2.3-5.6,5.4-5.6c3.3,0,5.4,2.3,5.5,5.6c0,3.2-2.2,5.6-5.5,5.6C129.1,53.4,126.9,51,126.9,47.9z"/>
</g>
</svg>
