<?xml version="1.0" encoding="utf-8"?>
<!-- Generator: Adobe Illustrator 22.1.0, SVG Export Plug-In . SVG Version: 6.00 Build 0)  -->
<svg version="1.1" id="Слой_1" xmlns="http://www.w3.org/2000/svg" xmlns:xlink="http://www.w3.org/1999/xlink" x="0px" y="0px"
	 viewBox="0 0 32 32" style="enable-background:new 0 0 32 32;" xml:space="preserve">
<style type="text/css">
	.st0{fill:none;stroke:#000000;stroke-width:2;stroke-miterlimit:10;}
</style>
<path class="st0" d="M16,1.2c-4,0-4.5,0-6.1,0.1C8.3,1.4,7.3,1.6,6.3,2c-1,0.4-1.8,0.9-2.6,1.7C2.9,4.5,2.4,5.4,2,6.3
	c-0.4,0.9-0.6,2-0.7,3.6C1.2,11.5,1.2,12,1.2,16s0,4.5,0.1,6.1c0.1,1.6,0.3,2.6,0.7,3.6c0.4,1,0.9,1.8,1.7,2.6
	c0.8,0.8,1.6,1.3,2.6,1.7c0.9,0.4,2,0.6,3.6,0.7c1.6,0.1,2.1,0.1,6.1,0.1s4.5,0,6.1-0.1c1.6-0.1,2.6-0.3,3.6-0.7
	c1-0.4,1.8-0.9,2.6-1.7c0.8-0.8,1.3-1.6,1.7-2.6c0.4-0.9,0.6-2,0.7-3.6c0.1-1.6,0.1-2.1,0.1-6.1s0-4.5-0.1-6.1
	c-0.1-1.6-0.3-2.6-0.7-3.6c-0.4-1-0.9-1.8-1.7-2.6c-0.8-0.8-1.6-1.3-2.6-1.7c-0.9-0.4-2-0.6-3.6-0.7C20.5,1.2,20,1.2,16,1.2L16,1.2
	L16,1.2z"/>
<path class="st0" d="M16,21.3c-2.9,0-5.3-2.4-5.3-5.3s2.4-5.3,5.3-5.3s5.3,2.4,5.3,5.3S18.9,21.3,16,21.3z"/>
<path d="M26.5,7.5c0,1.1-0.9,1.9-1.9,1.9s-1.9-0.9-1.9-1.9s0.9-1.9,1.9-1.9S26.5,6.4,26.5,7.5z"/>
</svg>
