<?xml version="1.0" encoding="utf-8"?>
<!-- Generator: Adobe Illustrator 22.1.0, SVG Export Plug-In . SVG Version: 6.00 Build 0)  -->
<svg version="1.1" id="Слой_1" xmlns="http://www.w3.org/2000/svg" xmlns:xlink="http://www.w3.org/1999/xlink" x="0px" y="0px"
	 viewBox="0 0 32 22.5" style="enable-background:new 0 0 32 22.5;" xml:space="preserve">
<style type="text/css">
	.st0{fill:none;stroke:#020202;stroke-width:1.5;stroke-linecap:round;stroke-linejoin:round;stroke-miterlimit:10;}
</style>
<g>
	<path class="st0" d="M16,1.1L16,1.1c0,0-6,0-10.1,0.3C5.4,1.5,4.1,1.5,3,2.6C2.1,3.5,1.8,5.5,1.8,5.5s-0.3,2.3-0.3,4.6v2.2
		c0,2.3,0.3,4.7,0.3,4.7s0.3,2,1.2,2.9C4.1,21,5.5,21,6.2,21.1c2.3,0.2,9.8,0.3,9.8,0.3s6,0,10.1-0.3c0.5-0.1,1.8-0.1,2.9-1.3
		c0.9-0.9,1.2-2.9,1.2-2.9s0.3-2.3,0.3-4.7v-2.2c0-2.3-0.3-4.7-0.3-4.7l0,0c0,0-0.3-2-1.2-2.9c-1.1-1.2-2.3-1.2-2.9-1.3
		C22,1.1,16,1.1,16,1.1L16,1.1z M13,15V6.9l7.8,4.1L13,15L13,15z"/>
</g>
</svg>
