<?xml version="1.0" encoding="utf-8"?>
<!-- Generator: Adobe Illustrator 22.1.0, SVG Export Plug-In . SVG Version: 6.00 Build 0)  -->
<svg version="1.1" id="Слой_1" xmlns="http://www.w3.org/2000/svg" xmlns:xlink="http://www.w3.org/1999/xlink" x="0px" y="0px"
	 viewBox="0 0 32 22.5" style="enable-background:new 0 0 32 22.5;" xml:space="preserve">
<g>
	<path d="M16,2c0.1,0,6.7,0,11,0.3c0.1,0,0.1,0,0.2,0c0.6,0.1,1.2,0.1,1.8,0.8c0.2,0.2,0.6,1.2,0.7,2c0,0.3,0.3,2.6,0.3,4.9v2.4
		c0,2.4-0.3,4.9-0.3,4.9c0,0,0,0,0,0c-0.1,0.7-0.4,1.8-0.7,2.1c-0.6,0.6-1.2,0.7-1.7,0.7c-0.1,0-0.1,0-0.2,0c-4.4,0.3-11,0.3-11,0.3
		c-0.1,0-8.1-0.1-10.6-0.3c-0.1,0-0.3,0-0.5-0.1C4.1,20,3.5,19.9,3,19.4c-0.2-0.3-0.6-1.3-0.7-2c0,0-0.3-2.5-0.3-4.9V10
		c0-2.4,0.3-4.9,0.3-4.9c0,0,0,0,0,0C2.4,4.4,2.7,3.4,3,3.1c0.6-0.6,1.2-0.7,1.7-0.7c0.1,0,0.1,0,0.2,0C9.3,2,15.9,2,16,2L16,2
		 M12.7,17.4c0.3,0,0.6-0.1,0.9-0.2l8.6-4.5c0.7-0.3,1.1-1,1.1-1.8c0-0.7-0.4-1.4-1.1-1.8l-8.6-4.5c-0.3-0.2-0.6-0.2-0.9-0.2
		c-0.4,0-0.7,0.1-1,0.3c-0.6,0.4-1,1-1,1.7v9c0,0.7,0.4,1.3,1,1.7C12,17.3,12.3,17.4,12.7,17.4 M16,0L16,0c0,0-6.7,0-11.2,0.3
		c-0.6,0.1-2,0.1-3.2,1.4c-1,1-1.3,3.2-1.3,3.2S0,7.4,0,10v2.4c0,2.6,0.3,5.2,0.3,5.2s0.3,2.2,1.3,3.2c1.2,1.3,2.8,1.2,3.5,1.4
		C7.7,22.4,16,22.5,16,22.5s6.7,0,11.2-0.3c0.6-0.1,2-0.1,3.2-1.4c1-1,1.3-3.2,1.3-3.2s0.3-2.6,0.3-5.2V10c0-2.6-0.3-5.2-0.3-5.2v0
		c0,0-0.3-2.2-1.3-3.2c-1.2-1.3-2.6-1.3-3.2-1.4C22.7,0,16,0,16,0L16,0z M12.7,15.4v-9l8.6,4.5L12.7,15.4L12.7,15.4z"/>
</g>
</svg>
