<?xml version="1.0" encoding="utf-8"?>
<!-- Generator: Adobe Illustrator 22.1.0, SVG Export Plug-In . SVG Version: 6.00 Build 0)  -->
<svg version="1.1" id="Слой_1" xmlns="http://www.w3.org/2000/svg" xmlns:xlink="http://www.w3.org/1999/xlink" x="0px" y="0px"
	 viewBox="0 0 66 90" style="enable-background:new 0 0 66 90;" xml:space="preserve">
<style type="text/css">
	.st0{fill:none;stroke:#010101;stroke-width:1.2;stroke-linecap:round;stroke-linejoin:round;stroke-miterlimit:10;}
	.st1{fill:#FFFFFF;}
</style>
<path class="st0" d="M28.8,5.4c0-2.4,1.9-4.3,4.3-4.3s4.3,1.9,4.3,4.3c0,2.4-1.9,4.3-4.3,4.3v3"/>
<polyline class="st0" points="19,20.4 33.1,12.7 47.2,20.4 "/>
<path class="st1" d="M53.3,20.8c0,0,9.8,2,11.8,20.8c-6,1.5-11.8,2.2-11.8,2.2V20.8z"/>
<path class="st0" d="M53.3,20.8c0,0,9.8,2,11.8,20.8c-6,1.5-11.8,2.2-11.8,2.2V20.8z"/>
<path class="st1" d="M13.1,20.8c0,0-9.8,2-11.8,20.8c6,1.5,11.8,2.2,11.8,2.2V20.8z"/>
<path class="st0" d="M13.1,20.8c0,0-9.8,2-11.8,20.8c6,1.5,11.8,2.2,11.8,2.2V20.8z"/>
<path class="st1" d="M12.9,20.8c0,0,4.4-2.7,11.3-4.2c0.9,4.3,4.5,7.6,8.9,7.6c4.4,0,8-3.2,8.9-7.6c7,1.5,11.3,4.2,11.3,4.2
	l2.2,65.5c0,0-5,2.6-22.4,2.6c-17.4,0-22.4-2.6-22.4-2.6L12.9,20.8z"/>
<path class="st0" d="M12.9,20.8c0,0,4.4-2.7,11.3-4.2c0.9,4.3,4.5,7.6,8.9,7.6c4.4,0,8-3.2,8.9-7.6c7,1.5,11.3,4.2,11.3,4.2
	l2.2,65.5c0,0-5,2.6-22.4,2.6c-17.4,0-22.4-2.6-22.4-2.6L12.9,20.8z"/>
</svg>
