<?xml version="1.0" encoding="utf-8"?>
<!-- Generator: Adobe Illustrator 22.1.0, SVG Export Plug-In . SVG Version: 6.00 Build 0)  -->
<svg version="1.1" id="Слой_1" xmlns="http://www.w3.org/2000/svg" xmlns:xlink="http://www.w3.org/1999/xlink" x="0px" y="0px"
	 viewBox="0 0 87 95" style="enable-background:new 0 0 87 95;" xml:space="preserve">
<style type="text/css">
	.st0{fill:#FFFFFF;}
	.st1{fill:none;stroke:#010101;stroke-width:1.2;stroke-linecap:round;stroke-linejoin:round;stroke-miterlimit:10;}
</style>
<g>
	<path class="st0" d="M53.9,16.4c0.2,18.7-10.4,39.8-10.4,39.8S32.6,33.1,33.1,16.4C43.8,19.5,53.9,16.4,53.9,16.4"/>
	<path class="st1" d="M43.5,56.2c0,0-10.9-23.1-10.4-39.8c10.7,3.1,20.9,0,20.9,0C54.1,35.1,43.5,56.2,43.5,56.2z"/>
	<path class="st1" d="M43.6,12.7v-3c-2.4,0-4.2-1.9-4.2-4.3s1.9-4.3,4.2-4.3c2.4,0,4.2,1.9,4.2,4.3"/>
	<polyline class="st1" points="29.6,20.4 43.5,12.7 57.5,20.4 	"/>
	<path class="st0" d="M64.6,19c-2.3,9.8-0.7,29.6-0.7,29.5l11.9,44.3c0,0,5.7,2.6,9.7-1.5C83.4,71,77.5,28,64.6,19"/>
	<path class="st1" d="M63.9,48.5l11.9,44.3c0,0,5.7,2.6,9.7-1.5C83.4,71,77.5,28,64.6,19C62.3,28.8,63.9,48.6,63.9,48.5z"/>
	<path class="st0" d="M22.4,19c2.3,9.8,0.7,29.6,0.7,29.6L11.2,92.8c0,0-5.7,2.6-9.7-1.5C3.7,71,9.6,28,22.4,19"/>
	<path class="st1" d="M23.1,48.6L11.2,92.8c0,0-5.7,2.6-9.7-1.5C3.7,71,9.6,28,22.4,19C24.7,28.8,23.1,48.6,23.1,48.6z"/>
	<path class="st0" d="M23.3,68.8L23.1,76c0,0,7.3,2.9,20.7,2.9S63.9,76,63.9,76l-0.1-7.2H23.3z"/>
	<path class="st1" d="M23.3,68.8L23.1,76c0,0,7.3,2.9,20.7,2.9S63.9,76,63.9,76l-0.1-7.2H23.3z"/>
	<path class="st0" d="M21.2,67.3c0,2,1.3,3.7,3.2,4.1c3.6,0.8,10.3,2,19.4,2c8.9,0,15.3-1.2,18.8-2c1.8-0.4,3.1-2.2,3.1-4.1L64.6,19
		c0,0-3.8-2.2-10.6-2.7c-4.9,13-10.4,34.8-10.4,34.8S38,29.3,33.1,16.3C26.4,16.8,22.4,19,22.4,19L21.2,67.3z"/>
	<path class="st1" d="M21.2,67.3c0,2,1.3,3.7,3.2,4.1c3.6,0.8,10.3,2,19.4,2c8.9,0,15.3-1.2,18.8-2c1.8-0.4,3.1-2.2,3.1-4.1L64.6,19
		c0,0-3.8-2.2-10.6-2.7c-4.9,13-10.4,34.8-10.4,34.8S38,29.3,33.1,16.3C26.4,16.8,22.4,19,22.4,19L21.2,67.3z"/>
	<line class="st1" x1="43.5" y1="73.4" x2="43.5" y2="51.1"/>
</g>
</svg>
