<?xml version="1.0" encoding="utf-8"?>
<!-- Generator: Adobe Illustrator 22.1.0, SVG Export Plug-In . SVG Version: 6.00 Build 0)  -->
<svg version="1.1" id="Слой_1" xmlns="http://www.w3.org/2000/svg" xmlns:xlink="http://www.w3.org/1999/xlink" x="0px" y="0px"
	 viewBox="0 0 66 90" style="enable-background:new 0 0 66 90;" xml:space="preserve">
<style type="text/css">
	.st0{fill:none;stroke:#010101;stroke-width:1.2;stroke-linecap:round;stroke-linejoin:round;stroke-miterlimit:10;}
	.st1{fill:#CCCCCC;}
</style>
<g>
	<path class="st0" d="M33,12.7v-3c-2.3,0-4.2-1.9-4.2-4.3s1.8-4.3,4.2-4.3s4.2,1.9,4.2,4.3"/>
	<polyline class="st0" points="19.2,20.4 32.9,12.7 46.7,20.4 	"/>
	<path class="st1" d="M13.3,43.8c0,0-5.5-0.8-11.4-2.2c1.9-18.8,11.4-20.8,11.4-20.8V43.8z"/>
	<path class="st0" d="M13.3,43.8c0,0-5.5-0.8-11.4-2.2c1.9-18.8,11.4-20.8,11.4-20.8V43.8z"/>
	<path class="st1" d="M52.4,43.8c0,0,5.6-0.7,11.4-2.2c-1.9-18.8-11.4-20.8-11.4-20.8V43.8z"/>
	<path class="st0" d="M52.4,43.8c0,0,5.6-0.7,11.4-2.2c-1.9-18.8-11.4-20.8-11.4-20.8V43.8z"/>
	<path class="st1" d="M54.7,86.3c0,0-4.8,2.6-21.7,2.6s-21.7-2.6-21.7-2.6l2.1-65.5c0,0,4.2-2.7,11-4.2c0.9,4.4,4.4,7.6,8.6,7.6
		c4.3,0,7.8-3.3,8.6-7.6c6.7,1.5,11,4.2,11,4.2L54.7,86.3z"/>
	<path class="st0" d="M54.7,86.3c0,0-4.8,2.6-21.7,2.6s-21.7-2.6-21.7-2.6l2.1-65.5c0,0,4.2-2.7,11-4.2c0.9,4.4,4.4,7.6,8.6,7.6
		c4.3,0,7.8-3.3,8.6-7.6c6.7,1.5,11,4.2,11,4.2L54.7,86.3z"/>
</g>
</svg>
