<?xml version="1.0" encoding="utf-8"?>
<!-- Generator: Adobe Illustrator 22.1.0, SVG Export Plug-In . SVG Version: 6.00 Build 0)  -->
<svg version="1.1" id="Слой_1" xmlns="http://www.w3.org/2000/svg" xmlns:xlink="http://www.w3.org/1999/xlink" x="0px" y="0px"
	 viewBox="0 0 87 95" style="enable-background:new 0 0 87 95;" xml:space="preserve">
<style type="text/css">
	.st0{fill:#FFFFFF;}
	.st1{fill:none;stroke:#010101;stroke-width:1.2;stroke-linecap:round;stroke-linejoin:round;stroke-miterlimit:10;}
</style>
<g>
	<path class="st0" d="M32.9,16.4c0,0,10.3,3.1,21.2,0c0.5,16.7-10.6,39.8-10.6,39.8S32.7,35.1,32.9,16.4"/>
	<path class="st1" d="M32.9,16.4c0,0,10.3,3.1,21.2,0c0.5,16.7-10.6,39.8-10.6,39.8S32.7,35.1,32.9,16.4z"/>
	<path class="st1" d="M39.1,5.4c0-2.4,1.9-4.3,4.3-4.3s4.3,1.9,4.3,4.3c0,2.4-1.9,4.3-4.3,4.3v3"/>
	<polyline class="st1" points="29.3,20.4 43.5,12.7 57.6,20.4 	"/>
	<path class="st0" d="M22.1,19C9,28,3,71,0.9,91.3c4,4.1,9.8,1.5,9.8,1.5l12.1-44.3C22.8,48.6,24.4,28.8,22.1,19"/>
	<path class="st1" d="M22.1,19C9,28,3,71,0.9,91.3c4,4.1,9.8,1.5,9.8,1.5l12.1-44.3C22.8,48.6,24.4,28.8,22.1,19z"/>
	<path class="st0" d="M64.9,19c13,9,19,52,21.2,72.3c-4,4.1-9.8,1.5-9.8,1.5L64.2,48.6C64.2,48.6,62.6,28.8,64.9,19"/>
	<path class="st1" d="M64.9,19c13,9,19,52,21.2,72.3c-4,4.1-9.8,1.5-9.8,1.5L64.2,48.6C64.2,48.6,62.6,28.8,64.9,19z"/>
	<path class="st0" d="M22.9,68.8L22.8,76c0,0,6.8,2.9,20.4,2.9c13.6,0,21-2.9,21-2.9L64,68.8H22.9z"/>
	<path class="st1" d="M22.9,68.8L22.8,76c0,0,6.8,2.9,20.4,2.9c13.6,0,21-2.9,21-2.9L64,68.8H22.9z"/>
	<path class="st0" d="M64.9,19c0,0-4-2.2-10.8-2.7c-5,13-10.6,34.8-10.6,34.8s-5.6-21.8-10.6-34.8C26,16.8,22.1,19,22.1,19
		l-1.1,48.3c0,1.9,1.3,3.7,3.1,4.1c3.6,0.8,10.1,2,19.1,2c9.2,0,16-1.2,19.7-2c1.9-0.4,3.2-2.1,3.2-4.1L64.9,19z"/>
	<path class="st1" d="M64.9,19c0,0-4-2.2-10.8-2.7c-5,13-10.6,34.8-10.6,34.8s-5.6-21.8-10.6-34.8C26,16.8,22.1,19,22.1,19
		l-1.1,48.3c0,1.9,1.3,3.7,3.1,4.1c3.6,0.8,10.1,2,19.1,2c9.2,0,16-1.2,19.7-2c1.9-0.4,3.2-2.1,3.2-4.1L64.9,19z"/>
	<line class="st1" x1="43.5" y1="51.1" x2="43.5" y2="73.4"/>
</g>
</svg>
