<?xml version="1.0" encoding="utf-8"?>
<!-- Generator: Adobe Illustrator 22.1.0, SVG Export Plug-In . SVG Version: 6.00 Build 0)  -->
<svg version="1.1" id="Слой_1" xmlns="http://www.w3.org/2000/svg" xmlns:xlink="http://www.w3.org/1999/xlink" x="0px" y="0px"
	 viewBox="0 0 171 159" style="enable-background:new 0 0 171 159;" xml:space="preserve">
<style type="text/css">
	.st0{fill:#FFFFFF;}
	.st1{fill:#CCCCCC;}
	.st2{fill:none;stroke:#010101;stroke-width:1.2;stroke-miterlimit:10;}
	.st3{fill:none;stroke:#010101;stroke-width:1.2;stroke-linecap:round;stroke-linejoin:round;stroke-miterlimit:10;}
	.st4{opacity:0.5;}
	.st5{clip-path:url(#SVGID_2_);fill:#010101;}
	.st6{clip-path:url(#SVGID_4_);fill:#010101;}
	.st7{clip-path:url(#SVGID_6_);fill:#010101;}
</style>
<g id="machine">
	<path class="st0" d="M4.2,119.9h87.5c2.3,0,4.2-1.9,4.2-4.2V68.9c0-2.3-1.9-4.2-4.2-4.2H47.3c-1.4,0-2.6,0.7-3.4,1.8L30.7,85.3
		c-0.8,1.1-2.1,1.8-3.4,1.8H11.5c-2.3,0-4.2-1.9-4.2-4.2V29.4c0-2.3,1.9-4.2,4.2-4.2h141.1c2.3,0,4.2,1.9,4.2,4.2v86.3
		c0,2.3,1.9,4.2,4.2,4.2h5.7c2.3,0,4.2,1.9,4.2,4.2v28.3c0,2.3-1.9,4.2-4.2,4.2H4.2c-2.3,0-4.2-1.9-4.2-4.2v-28.3
		C0.1,121.8,1.9,119.9,4.2,119.9"/>
	<path class="st1" d="M0.1,149.9v2.5c0,2.3,1.9,4.2,4.2,4.2h162.4c2.3,0,4.2-1.9,4.2-4.2v-2.5H0.1z"/>
	<path class="st2" d="M4.2,119.9h87.5c2.3,0,4.2-1.9,4.2-4.2V68.9c0-2.3-1.9-4.2-4.2-4.2H47.3c-1.4,0-2.6,0.7-3.4,1.8L30.7,85.3
		c-0.8,1.1-2.1,1.8-3.4,1.8H11.5c-2.3,0-4.2-1.9-4.2-4.2V29.4c0-2.3,1.9-4.2,4.2-4.2h141.1c2.3,0,4.2,1.9,4.2,4.2v86.3
		c0,2.3,1.9,4.2,4.2,4.2h5.7c2.3,0,4.2,1.9,4.2,4.2v28.3c0,2.3-1.9,4.2-4.2,4.2H4.2c-2.3,0-4.2-1.9-4.2-4.2v-28.3
		C0.1,121.8,1.9,119.9,4.2,119.9z"/>
	<line class="st0" x1="17.5" y1="25.2" x2="17.5" y2="12.9"/>
	<line class="st3" x1="17.5" y1="25.2" x2="17.5" y2="12.9"/>
	<line class="st0" x1="128.9" y1="25.2" x2="128.9" y2="12.9"/>
	<line class="st3" x1="128.9" y1="25.2" x2="128.9" y2="12.9"/>
	<line class="st0" x1="17.5" y1="87.1" x2="17.5" y2="107.2"/>
	<line class="st3" x1="17.5" y1="87.1" x2="17.5" y2="107.2"/>
	<path class="st0" d="M167.3,91.6h-10.6V33.6h10.6c2,0,3.5,1.6,3.5,3.5V88C170.8,90,169.3,91.6,167.3,91.6"/>
	<path class="st3" d="M167.3,91.6h-10.6V33.6h10.6c2,0,3.5,1.6,3.5,3.5V88C170.8,90,169.3,91.6,167.3,91.6z"/>
	<path class="st1" d="M144.3,119.9h-35.9c-1.1,0-2-0.9-2-2V64.6c0-1.1,0.9-2,2-2h35.9c1.1,0,2,0.9,2,2v53.3
		C146.3,119,145.4,119.9,144.3,119.9"/>
	<path class="st1" d="M144.3,119.9h-35.9c-1.1,0-2-0.9-2-2V64.6c0-1.1,0.9-2,2-2h35.9c1.1,0,2,0.9,2,2v53.3
		C146.3,119,145.4,119.9,144.3,119.9"/>
	<g class="st4">
		<g>
			<defs>
				<rect id="SVGID_1_" x="111.4" y="67.6" width="29.9" height="10.3"/>
			</defs>
			<clipPath id="SVGID_2_">
				<use xlink:href="#SVGID_1_"  style="overflow:visible;"/>
			</clipPath>
			<rect x="111.4" y="67.6" class="st5" width="29.9" height="10.3"/>
		</g>
	</g>
	<rect x="122.9" y="81.4" class="st0" width="6.8" height="6.2"/>
	<rect x="132.6" y="81.4" class="st0" width="6.8" height="6.2"/>
	<rect x="113.3" y="81.4" class="st0" width="6.8" height="6.2"/>
	<rect x="122.9" y="90.6" class="st0" width="6.8" height="6.2"/>
	<rect x="132.6" y="90.6" class="st0" width="6.8" height="6.2"/>
	<g class="st4">
		<g>
			<defs>
				<rect id="SVGID_3_" x="113.3" y="90.6" width="6.8" height="6.2"/>
			</defs>
			<clipPath id="SVGID_4_">
				<use xlink:href="#SVGID_3_"  style="overflow:visible;"/>
			</clipPath>
			<rect x="113.3" y="90.6" class="st6" width="6.8" height="6.2"/>
		</g>
	</g>
	<rect x="122.9" y="99.8" class="st0" width="6.8" height="6.2"/>
	<rect x="132.6" y="99.8" class="st0" width="6.8" height="6.2"/>
	<rect x="113.3" y="99.8" class="st0" width="6.8" height="6.2"/>
	<rect x="122.9" y="108.9" class="st0" width="6.8" height="6.2"/>
	<g class="st4">
		<g>
			<defs>
				<rect id="SVGID_5_" x="132.6" y="108.9" width="6.8" height="6.2"/>
			</defs>
			<clipPath id="SVGID_6_">
				<use xlink:href="#SVGID_5_"  style="overflow:visible;"/>
			</clipPath>
			<rect x="132.6" y="108.9" class="st7" width="6.8" height="6.2"/>
		</g>
	</g>
	<rect x="113.3" y="108.9" class="st0" width="6.8" height="6.2"/>
	<path class="st1" d="M34.7,42.4H21.5c-0.6,0-1-0.4-1-1v-4.6c0-0.6,0.4-1,1-1h13.2c0.6,0,1,0.4,1,1v4.6
		C35.7,41.9,35.2,42.4,34.7,42.4"/>
	<path class="st1" d="M54.8,42.4H41.7c-0.6,0-1-0.4-1-1v-4.6c0-0.6,0.4-1,1-1h13.2c0.6,0,1,0.4,1,1v4.6
		C55.8,41.9,55.4,42.4,54.8,42.4"/>
</g>
</svg>
