<?xml version="1.0" encoding="utf-8"?>
<!-- Generator: Adobe Illustrator 22.1.0, SVG Export Plug-In . SVG Version: 6.00 Build 0)  -->
<svg version="1.1" id="Слой_1" xmlns="http://www.w3.org/2000/svg" xmlns:xlink="http://www.w3.org/1999/xlink" x="0px" y="0px"
	 viewBox="0 0 139 111" style="enable-background:new 0 0 139 111;" xml:space="preserve">
<style type="text/css">
	.st0{fill:#FFFFFF;}
	.st1{fill:none;stroke:#010101;stroke-width:1.2;stroke-miterlimit:10;}
	.st2{fill:#CCCCCC;}
	.st3{fill:none;stroke:#010101;stroke-width:1.2;stroke-linecap:round;stroke-linejoin:round;stroke-miterlimit:10;}
	.st4{display:none;}
	.st5{display:inline;fill:#FFFFFF;}
	.st6{display:inline;fill:none;stroke:#010101;stroke-width:1.2;stroke-miterlimit:10;}
	.st7{display:inline;fill:#CCCCCC;}
	.st8{display:inline;fill:none;stroke:#010101;stroke-width:1.2;stroke-linecap:round;stroke-linejoin:round;stroke-miterlimit:10;}
</style>
<g>
	<path class="st0" d="M127.9,109.2H10.8c-5.5,0-10-4.5-10-10V10.2c0-5.5,4.5-10,10-10h117.1c5.5,0,10,4.5,10,10v88.9
		C137.9,104.7,133.4,109.2,127.9,109.2"/>
	<path class="st1" d="M127.9,109.2H10.8c-5.5,0-10-4.5-10-10V10.2c0-5.5,4.5-10,10-10h117.1c5.5,0,10,4.5,10,10v88.9
		C137.9,104.7,133.4,109.2,127.9,109.2z"/>
	<path class="st2" d="M47.6,83c0,0,9.6,2.6,21.8,2.6c12.1,0,21.8-2.6,21.8-2.6l0,0c1.3,1.9,3,3.2,5.2,3.4c1.2,3.8,2.9,7.9,2.9,7.9
		s5.9,0.8,9.7-2.7c-0.5-2.3-0.9-3.4-1.8-7.4c4.9-9.6-1.4-21.9-5-33.5c-2.5-8-4.3-16.7-7.5-21.5c-3.1-4.6-9.5-5.7-14.1-8.3L77,15.1
		c-4.6,0.8-11.4,0.6-15.3,0L58.2,21c-4.6,2.6-11,3.6-14.1,8.3c-3.2,4.8-5,13.5-7.5,21.5c-3.6,11.5-10,23.9-5,33.5
		c-1,4-1.3,5.1-1.8,7.4c3.8,3.4,9.7,2.7,9.7,2.7s1.7-4.1,2.9-7.9C45.6,85.8,47.6,83,47.6,83"/>
	<path class="st3" d="M61.7,15.1c2.3,3.9,5.3,5.3,5.3,5.3"/>
	<path class="st3" d="M76.9,15.1c-2.3,3.9-5.2,5.3-5.2,5.3"/>
	<path class="st3" d="M58.2,21c-4.6,2.6-11,3.6-14.1,8.3c-3.2,4.8-5,13.5-7.5,21.5c-3.6,11.5-10,23.9-5,33.5c-1,4-1.3,5.1-1.8,7.4
		c3.8,3.4,9.7,2.7,9.7,2.7s1.7-4.1,2.9-7.9c12.4-1.2,7.8-33.1,12.8-45.3"/>
	<path class="st3" d="M33.1,85.2c1.5,0.9,4.1,1.9,7.2,1.5"/>
	<path class="st3" d="M67,20.4l-7,6.4c-0.1,0.1-0.2,0-0.2-0.1L58.2,21l3.5-5.9c3.9,0.6,10.7,0.8,15.3,0l3.5,5.9l-1.5,5.8
		c0,0.1-0.1,0.1-0.2,0.1l-7-6.4H67z"/>
	<path class="st3" d="M80.4,21c4.6,2.6,11,3.6,14.1,8.3c3.2,4.8,5,13.5,7.5,21.5c3.6,11.5,10,23.9,5,33.5c1,4,1.3,5.1,1.8,7.4
		c-3.8,3.4-9.7,2.7-9.7,2.7s-1.7-4.1-2.9-7.9C83.9,85.2,88.5,53.2,83.5,41"/>
	<path class="st3" d="M91.1,83c0,0-9.6,2.6-21.8,2.6c-12.1,0-21.8-2.6-21.8-2.6"/>
	<path class="st3" d="M105.6,85.2c-1.5,0.9-4.1,1.9-7.2,1.5"/>
	<line class="st3" x1="71.7" y1="20.4" x2="71.7" y2="85.2"/>
	<line class="st3" x1="67" y1="20.4" x2="67" y2="85.2"/>
</g>
<g class="st4">
	<path class="st5" d="M128.2,108.6H11.1c-5.5,0-10-4.5-10-10V9.7c0-5.5,4.5-10,10-10h117.1c5.5,0,10,4.5,10,10v88.9
		C138.2,104.2,133.7,108.6,128.2,108.6"/>
	<path class="st6" d="M128.2,108.6H11.1c-5.5,0-10-4.5-10-10V9.7c0-5.5,4.5-10,10-10h117.1c5.5,0,10,4.5,10,10v88.9
		C138.2,104.2,133.7,108.6,128.2,108.6z"/>
	<path class="st7" d="M85.5,23.9c-3.7,0-28.1,0-31.7,0C51,43,41.9,60.7,41,80.2c8.2,4.1,18.3,6.1,26.4,1.8c0.8-2.2,1.6-8.5,2.2-12.6
		c0.6,4.2,1.4,10.4,2.2,12.6c8.1,4.3,18.2,2.4,26.4-1.8C97.4,60.7,88.3,43,85.5,23.9"/>
	<path class="st8" d="M85.5,23.9C88.3,43,97.4,60.7,98.3,80.2C90,84.3,80,86.3,71.9,82c-0.8-2.2-1.6-8.5-2.2-12.6
		C69,73.5,68.2,79.8,67.4,82c-8.1,4.3-18.2,2.4-26.4-1.8C41.9,60.7,51,43,53.8,23.9H85.5z"/>
	<line class="st8" x1="52.4" y1="33.3" x2="86.8" y2="33.3"/>
	<path class="st8" d="M70.8,75.9c0,0,13.4,4.6,26.7-2.6"/>
	<path class="st8" d="M67.9,75.9c0,0-12.4,4.6-25.8-2.6"/>
</g>
<g class="st4">
	<path class="st5" d="M55.5,206.7H-61.6c-5.5,0-10-4.5-10-10v-88.9c0-5.5,4.5-10,10-10H55.5c5.5,0,10,4.5,10,10v88.9
		C65.5,202.3,61,206.7,55.5,206.7"/>
	<path class="st6" d="M55.5,206.7H-61.6c-5.5,0-10-4.5-10-10v-88.9c0-5.5,4.5-10,10-10H55.5c5.5,0,10,4.5,10,10v88.9
		C65.5,202.3,61,206.7,55.5,206.7z"/>
	<path class="st7" d="M26.7,193.5c-0.1-3.8,0-7.3-0.4-11.1c0,0,0-0.1,0-0.1c-0.2-2.4-0.5-4.8-0.7-7.1c-0.5-5.2-1.1-10.5-1.6-15.7
		c-0.5-5.3-1.1-10.6-1.6-15.9c-0.5-4.6-1.1-9.1-1.4-13.7c-0.2-2.6-0.4-5.2-1.3-7.6c-0.9-2.4-2.6-4.5-4.7-5.9
		c-0.4-0.2-0.7-0.5-1.1-0.7h0c-0.4-0.2-0.8-0.4-1.2-0.6c-1.1-0.5-2.9-1.5-3.8-2.3c-1.6-1.4-3-3.2-3.8-5.2c-0.1-0.3-0.5-0.5-0.7-0.3
		c-4.5,3.6-13.1,4.4-18.2,0c-0.2-0.2-0.6,0-0.7,0.3c-0.8,2.1-2.2,3.8-3.8,5.2c-0.9,0.8-2.7,1.8-3.8,2.3c-0.4,0.2-0.8,0.4-1.2,0.6h0
		c-0.4,0.2-0.7,0.4-1.1,0.7c-2.1,1.4-3.8,3.5-4.7,5.9c-0.9,2.4-1.1,5-1.3,7.6c-0.4,4.6-1,9.1-1.4,13.7c-0.5,5.3-1.1,10.6-1.6,15.9
		c-0.5,5.2-1.1,10.5-1.6,15.7c-0.2,2.4-0.5,4.8-0.7,7.1c0,0,0,0.1,0,0.1c-0.4,3.8-0.3,7.3-0.4,11.1c0,0.4,0,0.8,0.2,1.2
		c0.3,0.5,1,0.6,1.5,0.7c2,0.2,3.9,0.4,5.9,0.6c0.3,0,0.5-0.2,0.6-0.5c0.9-5.8,1.3-7.3,1.9-11.7c0,0,0,0,0-0.1c0,0,0-0.1,0-0.1
		c0.3-1.7,3.4-17.8,4.5-23.6c0.1-0.4,0.5-0.5,0.7-0.4c0.1,0,0.2,0.1,0.3,0.3c0,0,0,0,0,0.1c0.7,2.2,1.5,4.5,2.2,6.7
		c0.1,0.3,0.4,0.4,0.6,0.3c0.1,0,0.2,0,0.2-0.1c0,0,0.1,0,0.1,0c0.6-0.2,1.1-0.3,1.7-0.4c0,0,0.1,0,0.1,0h0c0.5-0.1,1-0.2,1.6-0.3
		l0.1,0l0.1,0c0.6-0.1,1.2-0.2,1.8-0.3c0,0,0.1,0,0.1,0c0.7-0.1,1.4-0.2,2.1-0.2c0,0,0.1,0,0.1,0c0.7-0.1,1.4-0.1,2.1-0.1
		c0,0,0.1,0,0.1,0c0.6,0,1.2,0,1.8,0c0,0,0.1,0,0.1,0c0.3,0,0.7,0,1,0c0.3,0,0.7,0,1,0c0,0,0.1,0,0.1,0c0.6,0,1.2,0,1.8,0
		c0,0,0.1,0,0.1,0c0.7,0,1.4,0.1,2.1,0.1c0,0,0.1,0,0.1,0c0.7,0.1,1.4,0.1,2.1,0.2c0,0,0.1,0,0.1,0c0.6,0.1,1.2,0.2,1.8,0.3l0.1,0
		l0.1,0c0.5,0.1,1,0.2,1.6,0.3h0c0,0,0.1,0,0.1,0c0.6,0.1,1.1,0.3,1.7,0.4c0,0,0.1,0,0.1,0c0.1,0,0.2,0,0.2,0.1
		c0.3,0.1,0.6-0.1,0.6-0.3c0.8-2.2,1.5-4.4,2.2-6.7c0,0,0,0,0-0.1c0.1-0.1,0.1-0.2,0.3-0.3c0.3-0.1,0.7,0,0.7,0.4
		c1.1,5.8,4.1,21.9,4.5,23.6c0,0.1,0,0.1,0,0.1c0,0,0,0,0,0.1c0.6,4.3,1,5.9,1.9,11.7c0,0.3,0.3,0.6,0.6,0.5c2-0.2,3.9-0.4,5.9-0.6
		c0.6-0.1,1.2-0.2,1.5-0.7C26.7,194.4,26.7,193.9,26.7,193.5"/>
	<path class="st6" d="M-21.9,160c0.1-0.4,0.5-0.5,0.7-0.4c0.1,0,0.2,0.1,0.3,0.3c0,0,0,0,0,0.1c0.7,2.2,1.5,4.5,2.2,6.7
		c0.1,0.3,0.4,0.4,0.6,0.3c0.1,0,0.2,0,0.2-0.1c0,0,0.1,0,0.1,0c0.6-0.2,1.1-0.3,1.7-0.4c0,0,0.1,0,0.1,0h0c0.5-0.1,1-0.2,1.6-0.3
		l0.1,0l0.1,0c0.6-0.1,1.2-0.2,1.8-0.3c0,0,0.1,0,0.1,0c0.7-0.1,1.4-0.2,2.1-0.2c0,0,0.1,0,0.1,0c0.7-0.1,1.4-0.1,2.1-0.1
		c0,0,0.1,0,0.1,0c0.6,0,1.2,0,1.8,0c0,0,0.1,0,0.1,0c0.3,0,0.7,0,1,0c0.3,0,0.7,0,1,0c0,0,0.1,0,0.1,0c0.6,0,1.2,0,1.8,0
		c0,0,0.1,0,0.1,0c0.7,0,1.4,0.1,2.1,0.1c0,0,0.1,0,0.1,0c0.7,0.1,1.4,0.1,2.1,0.2c0,0,0.1,0,0.1,0c0.6,0.1,1.2,0.2,1.8,0.3l0.1,0
		l0.1,0c0.5,0.1,1,0.2,1.6,0.3h0c0,0,0.1,0,0.1,0c0.6,0.1,1.1,0.3,1.7,0.4c0,0,0.1,0,0.1,0c0.1,0,0.2,0,0.2,0.1
		c0.3,0.1,0.6-0.1,0.6-0.3c0.8-2.2,1.5-4.4,2.2-6.7c0,0,0,0,0-0.1c0.1-0.1,0.1-0.2,0.3-0.3c0.3-0.1,0.7,0,0.7,0.4"/>
	<path class="st6" d="M12.1,160c1.1,5.8,4.1,21.9,4.5,23.6c0,0.1,0,0.1,0,0.1c0,0,0,0,0,0.1c0.6,4.3,1,5.9,1.9,11.7
		c0,0.3,0.3,0.6,0.6,0.5c2-0.2,3.9-0.4,5.9-0.6c0.6-0.1,1.2-0.2,1.5-0.7c0.2-0.3,0.2-0.8,0.2-1.2c-0.1-3.8,0-7.3-0.4-11.1
		c0,0,0-0.1,0-0.1c-0.2-2.4-0.5-4.8-0.7-7.1c-0.5-5.2-1.1-10.5-1.6-15.7c-0.5-5.3-1.1-10.6-1.6-15.9c-0.5-4.6-1.1-9.1-1.4-13.7
		c-0.2-2.6-0.4-5.2-1.3-7.6c-0.9-2.4-2.6-4.5-4.7-5.9c-0.4-0.2-0.7-0.5-1.1-0.7h0c-0.4-0.2-0.8-0.4-1.2-0.6
		c-1.1-0.5-2.9-1.5-3.8-2.3c-1.6-1.4-3-3.2-3.8-5.2c-0.1-0.3-0.5-0.5-0.7-0.3c-4.5,3.6-13.1,4.4-18.2,0c-0.2-0.2-0.6,0-0.7,0.3
		c-0.8,2.1-2.2,3.8-3.8,5.2c-0.9,0.8-2.7,1.8-3.8,2.3c-0.4,0.2-0.8,0.4-1.2,0.6h0c-0.4,0.2-0.7,0.4-1.1,0.7
		c-2.1,1.4-3.8,3.5-4.7,5.9c-0.9,2.4-1.1,5-1.3,7.6c-0.4,4.6-1,9.1-1.4,13.7c-0.5,5.3-1.1,10.6-1.6,15.9c-0.5,5.2-1.1,10.5-1.6,15.7
		c-0.2,2.4-0.5,4.8-0.7,7.1c0,0,0,0.1,0,0.1c-0.4,3.8-0.3,7.3-0.4,11.1c0,0.4,0,0.8,0.2,1.2c0.3,0.5,1,0.6,1.5,0.7
		c2,0.2,3.9,0.4,5.9,0.6c0.3,0,0.5-0.2,0.6-0.5c0.9-5.8,1.3-7.3,1.9-11.7c0,0,0,0,0-0.1c0,0,0-0.1,0-0.1c0.3-1.7,3.4-17.8,4.5-23.6"
		/>
	<path class="st6" d="M-22.3,115c0,0,14.8,12.1,34.9,0"/>
	<path class="st6" d="M-21.6,159.6c0,0,14.6-5.2,33.4,0"/>
	<line class="st8" x1="-21.9" y1="151.8" x2="-24.7" y2="132"/>
	<line class="st8" x1="12.1" y1="151.8" x2="14.9" y2="132"/>
</g>
</svg>
