<?xml version="1.0" encoding="utf-8"?>
<!-- Generator: Adobe Illustrator 22.1.0, SVG Export Plug-In . SVG Version: 6.00 Build 0)  -->
<svg version="1.1" id="Слой_1" xmlns="http://www.w3.org/2000/svg" xmlns:xlink="http://www.w3.org/1999/xlink" x="0px" y="0px"
	 viewBox="0 0 138 111" style="enable-background:new 0 0 138 111;" xml:space="preserve">
<style type="text/css">
	.st0{fill:#FFFFFF;}
	.st1{fill:none;stroke:#010101;stroke-width:1.2;stroke-miterlimit:10;}
	.st2{fill:#CCCCCC;}
	.st3{fill:none;stroke:#010101;stroke-width:1.2;stroke-linecap:round;stroke-linejoin:round;stroke-miterlimit:10;}
</style>
<g>
	<path class="st0" d="M127.5,109.7H10.4c-5.5,0-10-4.5-10-10V10.8c0-5.5,4.5-10,10-10h117.1c5.5,0,10,4.5,10,10v88.9
		C137.5,105.3,133,109.7,127.5,109.7"/>
	<path class="st1" d="M127.5,109.7H10.4c-5.5,0-10-4.5-10-10V10.8c0-5.5,4.5-10,10-10h117.1c5.5,0,10,4.5,10,10v88.9
		C137.5,105.3,133,109.7,127.5,109.7z"/>
	<path class="st2" d="M98.7,96.5c-0.1-3.8,0-7.3-0.4-11.1c0,0,0-0.1,0-0.1c-0.2-2.4-0.5-4.8-0.7-7.1c-0.5-5.2-1.1-10.5-1.6-15.7
		c-0.5-5.3-1.1-10.6-1.6-15.9c-0.5-4.6-1.1-9.1-1.4-13.7c-0.2-2.6-0.4-5.2-1.3-7.6c-0.9-2.4-2.6-4.5-4.7-5.9
		c-0.4-0.2-0.7-0.5-1.1-0.7h0c-0.4-0.2-0.8-0.4-1.2-0.6c-1.1-0.5-2.9-1.5-3.8-2.3c-1.6-1.4-3-3.2-3.8-5.2c-0.1-0.3-0.5-0.5-0.7-0.3
		c-4.5,3.6-13.1,4.4-18.2,0c-0.2-0.2-0.6,0-0.7,0.3c-0.8,2.1-2.2,3.8-3.8,5.2c-0.9,0.8-2.7,1.8-3.8,2.3c-0.4,0.2-0.8,0.4-1.2,0.6h0
		c-0.4,0.2-0.7,0.4-1.1,0.7c-2.1,1.4-3.8,3.5-4.7,5.9c-0.9,2.4-1.1,5-1.3,7.6c-0.4,4.6-1,9.1-1.4,13.7c-0.5,5.3-1.1,10.6-1.6,15.9
		c-0.5,5.2-1.1,10.5-1.6,15.7c-0.2,2.4-0.5,4.8-0.7,7.1c0,0,0,0.1,0,0.1c-0.4,3.8-0.3,7.3-0.4,11.1c0,0.4,0,0.8,0.2,1.2
		c0.3,0.5,1,0.6,1.5,0.7c2,0.2,3.9,0.4,5.9,0.6c0.3,0,0.5-0.2,0.6-0.5c0.9-5.8,1.3-7.3,1.9-11.7c0,0,0,0,0-0.1c0,0,0-0.1,0-0.1
		C46,84.9,49,68.8,50.1,63c0.1-0.4,0.5-0.5,0.7-0.4c0.1,0,0.2,0.1,0.3,0.3c0,0,0,0,0,0.1c0.7,2.2,1.5,4.5,2.2,6.7
		c0.1,0.3,0.4,0.4,0.6,0.3c0.1,0,0.2,0,0.2-0.1c0,0,0.1,0,0.1,0c0.6-0.2,1.1-0.3,1.7-0.4c0,0,0.1,0,0.1,0h0c0.5-0.1,1-0.2,1.6-0.3
		l0.1,0l0.1,0c0.6-0.1,1.2-0.2,1.8-0.3c0,0,0.1,0,0.1,0c0.7-0.1,1.4-0.2,2.1-0.2c0,0,0.1,0,0.1,0c0.7-0.1,1.4-0.1,2.1-0.1
		c0,0,0.1,0,0.1,0c0.6,0,1.2,0,1.8,0c0,0,0.1,0,0.1,0c0.3,0,0.7,0,1,0c0.3,0,0.7,0,1,0c0,0,0.1,0,0.1,0c0.6,0,1.2,0,1.8,0
		c0,0,0.1,0,0.1,0c0.7,0,1.4,0.1,2.1,0.1c0,0,0.1,0,0.1,0c0.7,0.1,1.4,0.1,2.1,0.2c0,0,0.1,0,0.1,0c0.6,0.1,1.2,0.2,1.8,0.3l0.1,0
		l0.1,0c0.5,0.1,1,0.2,1.6,0.3h0c0,0,0.1,0,0.1,0c0.6,0.1,1.1,0.3,1.7,0.4c0,0,0.1,0,0.1,0c0.1,0,0.2,0,0.2,0.1
		c0.3,0.1,0.6-0.1,0.6-0.3c0.8-2.2,1.5-4.4,2.2-6.7c0,0,0,0,0-0.1c0.1-0.1,0.1-0.2,0.3-0.3c0.3-0.1,0.7,0,0.7,0.4
		c1.1,5.8,4.1,21.9,4.5,23.6c0,0.1,0,0.1,0,0.1c0,0,0,0,0,0.1c0.6,4.3,1,5.9,1.9,11.7c0,0.3,0.3,0.6,0.6,0.5c2-0.2,3.9-0.4,5.9-0.6
		c0.6-0.1,1.2-0.2,1.5-0.7C98.7,97.4,98.7,96.9,98.7,96.5"/>
	<path class="st1" d="M50.1,63c0.1-0.4,0.5-0.5,0.7-0.4c0.1,0,0.2,0.1,0.3,0.3c0,0,0,0,0,0.1c0.7,2.2,1.5,4.5,2.2,6.7
		c0.1,0.3,0.4,0.4,0.6,0.3c0.1,0,0.2,0,0.2-0.1c0,0,0.1,0,0.1,0c0.6-0.2,1.1-0.3,1.7-0.4c0,0,0.1,0,0.1,0h0c0.5-0.1,1-0.2,1.6-0.3
		l0.1,0l0.1,0c0.6-0.1,1.2-0.2,1.8-0.3c0,0,0.1,0,0.1,0c0.7-0.1,1.4-0.2,2.1-0.2c0,0,0.1,0,0.1,0c0.7-0.1,1.4-0.1,2.1-0.1
		c0,0,0.1,0,0.1,0c0.6,0,1.2,0,1.8,0c0,0,0.1,0,0.1,0c0.3,0,0.7,0,1,0c0.3,0,0.7,0,1,0c0,0,0.1,0,0.1,0c0.6,0,1.2,0,1.8,0
		c0,0,0.1,0,0.1,0c0.7,0,1.4,0.1,2.1,0.1c0,0,0.1,0,0.1,0c0.7,0.1,1.4,0.1,2.1,0.2c0,0,0.1,0,0.1,0c0.6,0.1,1.2,0.2,1.8,0.3l0.1,0
		l0.1,0c0.5,0.1,1,0.2,1.6,0.3h0c0,0,0.1,0,0.1,0c0.6,0.1,1.1,0.3,1.7,0.4c0,0,0.1,0,0.1,0c0.1,0,0.2,0,0.2,0.1
		c0.3,0.1,0.6-0.1,0.6-0.3c0.8-2.2,1.5-4.4,2.2-6.7c0,0,0,0,0-0.1c0.1-0.1,0.1-0.2,0.3-0.3c0.3-0.1,0.7,0,0.7,0.4"/>
	<path class="st1" d="M84.1,63c1.1,5.8,4.1,21.9,4.5,23.6c0,0.1,0,0.1,0,0.1c0,0,0,0,0,0.1c0.6,4.3,1,5.9,1.9,11.7
		c0,0.3,0.3,0.6,0.6,0.5c2-0.2,3.9-0.4,5.9-0.6c0.6-0.1,1.2-0.2,1.5-0.7c0.2-0.3,0.2-0.8,0.2-1.2c-0.1-3.8,0-7.3-0.4-11.1
		c0,0,0-0.1,0-0.1c-0.2-2.4-0.5-4.8-0.7-7.1c-0.5-5.2-1.1-10.5-1.6-15.7c-0.5-5.3-1.1-10.6-1.6-15.9c-0.5-4.6-1.1-9.1-1.4-13.7
		c-0.2-2.6-0.4-5.2-1.3-7.6c-0.9-2.4-2.6-4.5-4.7-5.9c-0.4-0.2-0.7-0.5-1.1-0.7h0c-0.4-0.2-0.8-0.4-1.2-0.6
		c-1.1-0.5-2.9-1.5-3.8-2.3c-1.6-1.4-3-3.2-3.8-5.2c-0.1-0.3-0.5-0.5-0.7-0.3c-4.5,3.6-13.1,4.4-18.2,0c-0.2-0.2-0.6,0-0.7,0.3
		c-0.8,2.1-2.2,3.8-3.8,5.2c-0.9,0.8-2.7,1.8-3.8,2.3c-0.4,0.2-0.8,0.4-1.2,0.6h0c-0.4,0.2-0.7,0.4-1.1,0.7
		c-2.1,1.4-3.8,3.5-4.7,5.9c-0.9,2.4-1.1,5-1.3,7.6c-0.4,4.6-1,9.1-1.4,13.7c-0.5,5.3-1.1,10.6-1.6,15.9c-0.5,5.2-1.1,10.5-1.6,15.7
		c-0.2,2.4-0.5,4.8-0.7,7.1c0,0,0,0.1,0,0.1c-0.4,3.8-0.3,7.3-0.4,11.1c0,0.4,0,0.8,0.2,1.2c0.3,0.5,1,0.6,1.5,0.7
		c2,0.2,3.9,0.4,5.9,0.6c0.3,0,0.5-0.2,0.6-0.5c0.9-5.8,1.3-7.3,1.9-11.7c0,0,0,0,0-0.1c0,0,0-0.1,0-0.1C46,84.9,49,68.8,50.1,63"/>
	<path class="st1" d="M49.7,18c0,0,14.8,12.1,34.9,0"/>
	<path class="st1" d="M50.4,62.6c0,0,14.6-5.2,33.4,0"/>
	<line class="st3" x1="50.1" y1="54.8" x2="47.3" y2="35"/>
	<line class="st3" x1="84.1" y1="54.8" x2="86.9" y2="35"/>
</g>
</svg>
