<?xml version="1.0" encoding="utf-8"?>
<!-- Generator: Adobe Illustrator 22.1.0, SVG Export Plug-In . SVG Version: 6.00 Build 0)  -->
<svg version="1.1" id="Слой_1" xmlns="http://www.w3.org/2000/svg" xmlns:xlink="http://www.w3.org/1999/xlink" x="0px" y="0px"
	 viewBox="0 0 139 111" style="enable-background:new 0 0 139 111;" xml:space="preserve">
<style type="text/css">
	.st0{display:none;}
	.st1{display:inline;fill:#FFFFFF;}
	.st2{display:inline;fill:none;stroke:#010101;stroke-width:1.2;stroke-miterlimit:10;}
	.st3{display:inline;fill:#CCCCCC;}
	.st4{display:inline;fill:none;stroke:#010101;stroke-width:1.2;stroke-linecap:round;stroke-linejoin:round;stroke-miterlimit:10;}
	.st5{fill:#FFFFFF;}
	.st6{fill:none;stroke:#010101;stroke-width:1.2;stroke-miterlimit:10;}
	.st7{fill:#CCCCCC;}
	.st8{fill:none;stroke:#010101;stroke-width:1.2;stroke-linecap:round;stroke-linejoin:round;stroke-miterlimit:10;}
</style>
<g class="st0">
	<path class="st1" d="M200.9,11.2H83.8c-5.5,0-10-4.5-10-10v-88.9c0-5.5,4.5-10,10-10h117.1c5.5,0,10,4.5,10,10V1.2
		C210.9,6.7,206.4,11.2,200.9,11.2"/>
	<path class="st2" d="M200.9,11.2H83.8c-5.5,0-10-4.5-10-10v-88.9c0-5.5,4.5-10,10-10h117.1c5.5,0,10,4.5,10,10V1.2
		C210.9,6.7,206.4,11.2,200.9,11.2z"/>
	<path class="st3" d="M120.6-15c0,0,9.6,2.6,21.8,2.6c12.1,0,21.8-2.6,21.8-2.6l0,0c1.3,1.9,3,3.2,5.2,3.4c1.2,3.8,2.9,7.9,2.9,7.9
		s5.9,0.8,9.7-2.7c-0.5-2.3-0.9-3.4-1.8-7.4c4.9-9.6-1.4-21.9-5-33.5c-2.5-8-4.3-16.7-7.5-21.5c-3.1-4.6-9.5-5.7-14.1-8.3l-3.5-5.9
		c-4.6,0.8-11.4,0.6-15.3,0l-3.5,5.9c-4.6,2.6-11,3.6-14.1,8.3c-3.2,4.8-5,13.5-7.5,21.5c-3.6,11.5-10,23.9-5,33.5
		c-1,4-1.3,5.1-1.8,7.4c3.8,3.4,9.7,2.7,9.7,2.7s1.7-4.1,2.9-7.9C118.6-12.2,120.6-15,120.6-15"/>
	<path class="st4" d="M134.7-82.9c2.3,3.9,5.3,5.3,5.3,5.3"/>
	<path class="st4" d="M149.9-82.9c-2.3,3.9-5.2,5.3-5.2,5.3"/>
	<path class="st4" d="M131.2-77c-4.6,2.6-11,3.6-14.1,8.3c-3.2,4.8-5,13.5-7.5,21.5c-3.6,11.5-10,23.9-5,33.5c-1,4-1.3,5.1-1.8,7.4
		c3.8,3.4,9.7,2.7,9.7,2.7s1.7-4.1,2.9-7.9c12.4-1.2,7.8-33.1,12.8-45.3"/>
	<path class="st4" d="M106.1-12.8c1.5,0.9,4.1,1.9,7.2,1.5"/>
	<path class="st4" d="M140-77.6l-7,6.4c-0.1,0.1-0.2,0-0.2-0.1l-1.5-5.8l3.5-5.9c3.9,0.6,10.7,0.8,15.3,0l3.5,5.9l-1.5,5.8
		c0,0.1-0.1,0.1-0.2,0.1l-7-6.4H140z"/>
	<path class="st4" d="M153.4-77c4.6,2.6,11,3.6,14.1,8.3c3.2,4.8,5,13.5,7.5,21.5c3.6,11.5,10,23.9,5,33.5c1,4,1.3,5.1,1.8,7.4
		c-3.8,3.4-9.7,2.7-9.7,2.7s-1.7-4.1-2.9-7.9c-12.4-1.2-7.8-33.1-12.8-45.3"/>
	<path class="st4" d="M164.1-15c0,0-9.6,2.6-21.8,2.6c-12.1,0-21.8-2.6-21.8-2.6"/>
	<path class="st4" d="M178.6-12.8c-1.5,0.9-4.1,1.9-7.2,1.5"/>
	<line class="st4" x1="144.7" y1="-77.6" x2="144.7" y2="-12.8"/>
	<line class="st4" x1="140" y1="-77.6" x2="140" y2="-12.8"/>
</g>
<g>
	<path class="st5" d="M128.2,110.6H11.1c-5.5,0-10-4.5-10-10V11.7c0-5.5,4.5-10,10-10h117.1c5.5,0,10,4.5,10,10v88.9
		C138.2,106.2,133.7,110.6,128.2,110.6"/>
	<path class="st6" d="M128.2,110.6H11.1c-5.5,0-10-4.5-10-10V11.7c0-5.5,4.5-10,10-10h117.1c5.5,0,10,4.5,10,10v88.9
		C138.2,106.2,133.7,110.6,128.2,110.6z"/>
	<path class="st7" d="M85.5,25.9c-3.7,0-28.1,0-31.7,0C51,45,41.9,62.7,41,82.2c8.2,4.1,18.3,6.1,26.4,1.8c0.8-2.2,1.6-8.5,2.2-12.6
		c0.6,4.2,1.4,10.4,2.2,12.6c8.1,4.3,18.2,2.4,26.4-1.8C97.4,62.7,88.3,45,85.5,25.9"/>
	<path class="st8" d="M85.5,25.9C88.3,45,97.4,62.7,98.3,82.2C90,86.3,80,88.3,71.9,84c-0.8-2.2-1.6-8.5-2.2-12.6
		C69,75.5,68.2,81.8,67.4,84c-8.1,4.3-18.2,2.4-26.4-1.8C41.9,62.7,51,45,53.8,25.9H85.5z"/>
	<line class="st8" x1="52.4" y1="35.3" x2="86.8" y2="35.3"/>
	<path class="st8" d="M70.8,77.9c0,0,13.4,4.6,26.7-2.6"/>
	<path class="st8" d="M67.9,77.9c0,0-12.4,4.6-25.8-2.6"/>
</g>
<g class="st0">
	<path class="st1" d="M128.5,109.7H11.4c-5.5,0-10-4.5-10-10V10.8c0-5.5,4.5-10,10-10h117.1c5.5,0,10,4.5,10,10v88.9
		C138.5,105.3,134,109.7,128.5,109.7"/>
	<path class="st2" d="M128.5,109.7H11.4c-5.5,0-10-4.5-10-10V10.8c0-5.5,4.5-10,10-10h117.1c5.5,0,10,4.5,10,10v88.9
		C138.5,105.3,134,109.7,128.5,109.7z"/>
	<path class="st3" d="M99.7,96.5c-0.1-3.8,0-7.3-0.4-11.1c0,0,0-0.1,0-0.1c-0.2-2.4-0.5-4.8-0.7-7.1c-0.5-5.2-1.1-10.5-1.6-15.7
		c-0.5-5.3-1.1-10.6-1.6-15.9c-0.5-4.6-1.1-9.1-1.4-13.7c-0.2-2.6-0.4-5.2-1.3-7.6c-0.9-2.4-2.6-4.5-4.7-5.9
		c-0.4-0.2-0.7-0.5-1.1-0.7h0c-0.4-0.2-0.8-0.4-1.2-0.6c-1.1-0.5-2.9-1.5-3.8-2.3c-1.6-1.4-3-3.2-3.8-5.2c-0.1-0.3-0.5-0.5-0.7-0.3
		c-4.5,3.6-13.1,4.4-18.2,0c-0.2-0.2-0.6,0-0.7,0.3c-0.8,2.1-2.2,3.8-3.8,5.2c-0.9,0.8-2.7,1.8-3.8,2.3c-0.4,0.2-0.8,0.4-1.2,0.6h0
		c-0.4,0.2-0.7,0.4-1.1,0.7c-2.1,1.4-3.8,3.5-4.7,5.9c-0.9,2.4-1.1,5-1.3,7.6c-0.4,4.6-1,9.1-1.4,13.7c-0.5,5.3-1.1,10.6-1.6,15.9
		c-0.5,5.2-1.1,10.5-1.6,15.7c-0.2,2.4-0.5,4.8-0.7,7.1c0,0,0,0.1,0,0.1c-0.4,3.8-0.3,7.3-0.4,11.1c0,0.4,0,0.8,0.2,1.2
		c0.3,0.5,1,0.6,1.5,0.7c2,0.2,3.9,0.4,5.9,0.6c0.3,0,0.5-0.2,0.6-0.5c0.9-5.8,1.3-7.3,1.9-11.7c0,0,0,0,0-0.1c0,0,0-0.1,0-0.1
		C47,84.9,50,68.8,51.1,63c0.1-0.4,0.5-0.5,0.7-0.4c0.1,0,0.2,0.1,0.3,0.3c0,0,0,0,0,0.1c0.7,2.2,1.5,4.5,2.2,6.7
		c0.1,0.3,0.4,0.4,0.6,0.3c0.1,0,0.2,0,0.2-0.1c0,0,0.1,0,0.1,0c0.6-0.2,1.1-0.3,1.7-0.4c0,0,0.1,0,0.1,0h0c0.5-0.1,1-0.2,1.6-0.3
		l0.1,0l0.1,0c0.6-0.1,1.2-0.2,1.8-0.3c0,0,0.1,0,0.1,0c0.7-0.1,1.4-0.2,2.1-0.2c0,0,0.1,0,0.1,0c0.7-0.1,1.4-0.1,2.1-0.1
		c0,0,0.1,0,0.1,0c0.6,0,1.2,0,1.8,0c0,0,0.1,0,0.1,0c0.3,0,0.7,0,1,0c0.3,0,0.7,0,1,0c0,0,0.1,0,0.1,0c0.6,0,1.2,0,1.8,0
		c0,0,0.1,0,0.1,0c0.7,0,1.4,0.1,2.1,0.1c0,0,0.1,0,0.1,0c0.7,0.1,1.4,0.1,2.1,0.2c0,0,0.1,0,0.1,0c0.6,0.1,1.2,0.2,1.8,0.3l0.1,0
		l0.1,0c0.5,0.1,1,0.2,1.6,0.3h0c0,0,0.1,0,0.1,0c0.6,0.1,1.1,0.3,1.7,0.4c0,0,0.1,0,0.1,0c0.1,0,0.2,0,0.2,0.1
		c0.3,0.1,0.6-0.1,0.6-0.3c0.8-2.2,1.5-4.4,2.2-6.7c0,0,0,0,0-0.1c0.1-0.1,0.1-0.2,0.3-0.3c0.3-0.1,0.7,0,0.7,0.4
		c1.1,5.8,4.1,21.9,4.5,23.6c0,0.1,0,0.1,0,0.1c0,0,0,0,0,0.1c0.6,4.3,1,5.9,1.9,11.7c0,0.3,0.3,0.6,0.6,0.5c2-0.2,3.9-0.4,5.9-0.6
		c0.6-0.1,1.2-0.2,1.5-0.7C99.7,97.4,99.7,96.9,99.7,96.5"/>
	<path class="st2" d="M51.1,63c0.1-0.4,0.5-0.5,0.7-0.4c0.1,0,0.2,0.1,0.3,0.3c0,0,0,0,0,0.1c0.7,2.2,1.5,4.5,2.2,6.7
		c0.1,0.3,0.4,0.4,0.6,0.3c0.1,0,0.2,0,0.2-0.1c0,0,0.1,0,0.1,0c0.6-0.2,1.1-0.3,1.7-0.4c0,0,0.1,0,0.1,0h0c0.5-0.1,1-0.2,1.6-0.3
		l0.1,0l0.1,0c0.6-0.1,1.2-0.2,1.8-0.3c0,0,0.1,0,0.1,0c0.7-0.1,1.4-0.2,2.1-0.2c0,0,0.1,0,0.1,0c0.7-0.1,1.4-0.1,2.1-0.1
		c0,0,0.1,0,0.1,0c0.6,0,1.2,0,1.8,0c0,0,0.1,0,0.1,0c0.3,0,0.7,0,1,0c0.3,0,0.7,0,1,0c0,0,0.1,0,0.1,0c0.6,0,1.2,0,1.8,0
		c0,0,0.1,0,0.1,0c0.7,0,1.4,0.1,2.1,0.1c0,0,0.1,0,0.1,0c0.7,0.1,1.4,0.1,2.1,0.2c0,0,0.1,0,0.1,0c0.6,0.1,1.2,0.2,1.8,0.3l0.1,0
		l0.1,0c0.5,0.1,1,0.2,1.6,0.3h0c0,0,0.1,0,0.1,0c0.6,0.1,1.1,0.3,1.7,0.4c0,0,0.1,0,0.1,0c0.1,0,0.2,0,0.2,0.1
		c0.3,0.1,0.6-0.1,0.6-0.3c0.8-2.2,1.5-4.4,2.2-6.7c0,0,0,0,0-0.1c0.1-0.1,0.1-0.2,0.3-0.3c0.3-0.1,0.7,0,0.7,0.4"/>
	<path class="st2" d="M85.1,63c1.1,5.8,4.1,21.9,4.5,23.6c0,0.1,0,0.1,0,0.1c0,0,0,0,0,0.1c0.6,4.3,1,5.9,1.9,11.7
		c0,0.3,0.3,0.6,0.6,0.5c2-0.2,3.9-0.4,5.9-0.6c0.6-0.1,1.2-0.2,1.5-0.7c0.2-0.3,0.2-0.8,0.2-1.2c-0.1-3.8,0-7.3-0.4-11.1
		c0,0,0-0.1,0-0.1c-0.2-2.4-0.5-4.8-0.7-7.1c-0.5-5.2-1.1-10.5-1.6-15.7c-0.5-5.3-1.1-10.6-1.6-15.9c-0.5-4.6-1.1-9.1-1.4-13.7
		c-0.2-2.6-0.4-5.2-1.3-7.6c-0.9-2.4-2.6-4.5-4.7-5.9c-0.4-0.2-0.7-0.5-1.1-0.7h0c-0.4-0.2-0.8-0.4-1.2-0.6
		c-1.1-0.5-2.9-1.5-3.8-2.3c-1.6-1.4-3-3.2-3.8-5.2c-0.1-0.3-0.5-0.5-0.7-0.3c-4.5,3.6-13.1,4.4-18.2,0c-0.2-0.2-0.6,0-0.7,0.3
		c-0.8,2.1-2.2,3.8-3.8,5.2c-0.9,0.8-2.7,1.8-3.8,2.3c-0.4,0.2-0.8,0.4-1.2,0.6h0c-0.4,0.2-0.7,0.4-1.1,0.7
		c-2.1,1.4-3.8,3.5-4.7,5.9c-0.9,2.4-1.1,5-1.3,7.6c-0.4,4.6-1,9.1-1.4,13.7c-0.5,5.3-1.1,10.6-1.6,15.9c-0.5,5.2-1.1,10.5-1.6,15.7
		c-0.2,2.4-0.5,4.8-0.7,7.1c0,0,0,0.1,0,0.1c-0.4,3.8-0.3,7.3-0.4,11.1c0,0.4,0,0.8,0.2,1.2c0.3,0.5,1,0.6,1.5,0.7
		c2,0.2,3.9,0.4,5.9,0.6c0.3,0,0.5-0.2,0.6-0.5c0.9-5.8,1.3-7.3,1.9-11.7c0,0,0,0,0-0.1c0,0,0-0.1,0-0.1C47,84.9,50,68.8,51.1,63"/>
	<path class="st2" d="M50.7,18c0,0,14.8,12.1,34.9,0"/>
	<path class="st2" d="M51.4,62.6c0,0,14.6-5.2,33.4,0"/>
	<line class="st4" x1="51.1" y1="54.8" x2="48.3" y2="35"/>
	<line class="st4" x1="85.1" y1="54.8" x2="87.9" y2="35"/>
</g>
</svg>
