<?xml version="1.0" encoding="utf-8"?>
<!-- Generator: Adobe Illustrator 22.1.0, SVG Export Plug-In . SVG Version: 6.00 Build 0)  -->
<svg version="1.1" id="Слой_1" xmlns="http://www.w3.org/2000/svg" xmlns:xlink="http://www.w3.org/1999/xlink" x="0px" y="0px"
	 viewBox="0 0 52 154" style="enable-background:new 0 0 52 154;" xml:space="preserve">
<style type="text/css">
	.st0{fill:none;stroke:#010101;stroke-width:1.2;stroke-linecap:round;stroke-linejoin:round;stroke-miterlimit:10;}
	.st1{fill:#CCCCCC;}
</style>
<g>
	<path class="st0" d="M26.3,12.7v-3c-2.4,0-4.3-1.9-4.3-4.3s1.9-4.3,4.3-4.3s4.3,1.9,4.3,4.3"/>
	<polyline class="st0" points="12.1,20.4 26.2,12.7 40.4,20.4 	"/>
	<path class="st1" d="M8.9,25c0,0-5.4,6.2-7,27.2C-0.5,82.5,2.1,153,2.1,153h14.7L26,52.2L35.3,153H50c0,0,3.4-70.6,0.3-100.8
		C48.1,31.9,43.2,25,43.2,25"/>
	<path class="st0" d="M8.9,25c0,0-5.4,6.2-7,27.2C-0.5,82.5,2.1,153,2.1,153h14.7L26,52.2L35.3,153H50c0,0,3.4-70.6,0.3-100.8
		C48.1,31.9,43.2,25,43.2,25"/>
	<rect x="8.9" y="19.4" class="st1" width="34.5" height="5.6"/>
	<rect x="8.9" y="19.4" class="st0" width="34.5" height="5.6"/>
</g>
</svg>
