<?xml version="1.0" encoding="utf-8"?>
<!-- Generator: Adobe Illustrator 22.1.0, SVG Export Plug-In . SVG Version: 6.00 Build 0)  -->
<svg version="1.1" id="Слой_1" xmlns="http://www.w3.org/2000/svg" xmlns:xlink="http://www.w3.org/1999/xlink" x="0px" y="0px"
	 viewBox="0 0 52 154" style="enable-background:new 0 0 52 154;" xml:space="preserve">
<style type="text/css">
	.st0{fill:none;stroke:#010101;stroke-width:1.2;stroke-linecap:round;stroke-linejoin:round;stroke-miterlimit:10;}
	.st1{fill:#FFFFFF;}
</style>
<g>
	<path class="st0" d="M21.5,5.4c0-2.4,1.9-4.3,4.3-4.3s4.3,1.9,4.3,4.3c0,2.4-1.9,4.3-4.3,4.3v3"/>
	<polyline class="st0" points="11.7,20.4 25.9,12.7 40,20.4 	"/>
	<path class="st1" d="M8.9,25c0,0-4.9,6.9-7.1,27.2C-1.3,82.4,2.1,153,2.1,153h14.7L26,52.2L35.3,153H50c0,0,2.6-70.5,0.2-100.8
		c-1.6-21-7.1-27.2-7.1-27.2"/>
	<path class="st0" d="M8.9,25c0,0-4.9,6.9-7.1,27.2C-1.3,82.4,2.1,153,2.1,153h14.7L26,52.2L35.3,153H50c0,0,2.6-70.5,0.2-100.8
		c-1.6-21-7.1-27.2-7.1-27.2"/>
	<rect x="8.7" y="19.4" class="st1" width="34.5" height="5.6"/>
	<rect x="8.7" y="19.4" class="st0" width="34.5" height="5.6"/>
</g>
</svg>
