<?xml version="1.0" encoding="utf-8"?>
<!-- Generator: Adobe Illustrator 22.1.0, SVG Export Plug-In . SVG Version: 6.00 Build 0)  -->
<svg version="1.1" id="Слой_1" xmlns="http://www.w3.org/2000/svg" xmlns:xlink="http://www.w3.org/1999/xlink" x="0px" y="0px"
	 viewBox="0 0 123 243" style="enable-background:new 0 0 123 243;" xml:space="preserve">
<style type="text/css">
	.st0{fill:#FFFFFF;}
	.st1{fill:none;stroke:#010101;stroke-width:1.2;stroke-linecap:round;stroke-linejoin:round;stroke-miterlimit:10;}
	.st2{fill:#CCCCCC;}
</style>
<g>
	<path class="st0" d="M45.9,159.4l-0.1-59.7l2.9-9.7l-3.9-1.5l-1.3-2.2c0,0-0.5-6.6-0.7-12.5c2.7,10.5,12.4,10,18.6,7.6
		s20-9.1,20-9.1l0.7-9.1l-27.4,6.7c0,0-9.3-22.1-12.1-28.6c-3-6.5-14.4-6.2-14.4-6.2s0.6-1.2,0.4-3c8.3-1.2,7.7-14.3,7.2-20.5
		C35.7-1,24.9,0.5,18.5,2.3C8.3-3.6,6.7,7.7,6.4,11c-0.3,3.3,1.7,11.4,0.9,14.2C6.5,28,5.1,34.9,5.7,39.1C2.2,43.7,1,60.7,1.6,72.8
		C2.2,84.9,5.8,90,5.8,90L4,108.9h2c0,0-1.6,10.6-2,22.1c-0.5,11.5,3.2,78.1,3.6,96.1c4.4,2.6,11.8,0.7,11.8,0.7l7.2-96.8
		c0,0,5,84.5,5,96.7c5.8,2.3,11.4-0.6,11.4-0.6L45.9,159.4z"/>
	<path class="st0" d="M42.1,227.2c-0.1,4.8,4.9,8.7,10.4,10.3l-1.4,2.6l-17.4-0.2l-1.5-2.9c0.7-2.2,0.6-6.6,0.5-9.6"/>
	<path class="st1" d="M42.1,227.2c-0.1,4.8,4.9,8.7,10.4,10.3l-1.4,2.6l-17.4-0.2l-1.5-2.9c0.7-2.2,0.6-6.6,0.5-9.6"/>
	<path class="st0" d="M51.7,237c0,0,7.7,1.7,7.6,2.8c-0.2,1.1-1.9,2.1-3.8,2.1c-1.7,0-19.5,0.2-21.5,0c-2-0.1-2.2-1.2-2.2-1.2
		c-1.5-2.7,0.2-5.4,0.5-5.8c0.2-0.4,0.5-0.1,0.5-0.1C47.3,240.6,51.7,237,51.7,237"/>
	<path class="st1" d="M59.3,239.8c-0.2,1.1-1.9,2.1-3.8,2.1c-1.7,0-19.5,0.2-21.5,0c-2-0.1-2.2-1.2-2.2-1.2
		c-1.5-2.7,0.2-5.4,0.5-5.8c0.2-0.4,0.5-0.1,0.5-0.1c14.5,5.8,18.9,2.2,18.9,2.2S59.4,238.7,59.3,239.8z"/>
	<path class="st0" d="M18.4,228.3c1,4,5.5,7.8,10.3,9.2l-1.4,2.6l-17.4-0.2L8.5,237c0.7-2.2,0.8-6.4,0.7-9.3"/>
	<path class="st1" d="M18.4,228.3c1,4,5.5,7.8,10.3,9.2l-1.4,2.6l-17.4-0.2L8.5,237c0.7-2.2,0.8-6.4,0.7-9.3"/>
	<path class="st0" d="M28,237c0,0,7.7,1.7,7.6,2.8c-0.2,1.1-1.9,2.1-3.8,2.1c-1.7,0-19.5,0.2-21.5,0c-2-0.1-2.2-1.2-2.2-1.2
		c-1.5-2.7,0.2-5.4,0.5-5.8c0.2-0.4,0.5-0.1,0.5-0.1C23.5,240.6,28,237,28,237"/>
	<path class="st1" d="M35.5,239.8c-0.2,1.1-1.9,2.1-3.8,2.1c-1.7,0-19.5,0.2-21.5,0c-2-0.1-2.2-1.2-2.2-1.2
		c-1.5-2.7,0.2-5.4,0.5-5.8c0.2-0.4,0.5-0.1,0.5-0.1C23.5,240.6,28,237,28,237S35.6,238.7,35.5,239.8z"/>
	<path class="st1" d="M18.2,28.2C7.4,19.8,10.7,1.3,23.5,0.9C39,0.5,35.7,13.8,35.7,13.8"/>
	<path class="st1" d="M5.3,39C4.8,27.4,8.9,27.4,7.4,19.1c-4.5-25.2,12-17.2,12-17.2"/>
	<path class="st1" d="M82.5,63.1l-27.8,6.8c0,0-9.6-25.5-12.7-29.6c-3.2-4.1-13.8-5.7-13.8-5.7v-2.5"/>
	<path class="st1" d="M42.7,73.7c0,0,3.2,8.5,9.5,9.4c6.9,1,25.2-8.9,25.2-8.9"/>
	<path class="st1" d="M30,35c0,0,8.2,10.2-1.1,10.8c-10.3,0.6-12.4-11-12.4-11"/>
	<path class="st1" d="M44.2,88.9c-1.5-4.4-2.6-11.3-1.4-16.1c1.8-7.4,0.3-17.4,0.3-17.4"/>
	<path class="st1" d="M43.1,108.8C24.5,110.9,4,108.7,4,108.7L5.8,90"/>
	<path class="st1" d="M45.9,158.5c0,0-0.3,4.8-0.8,15.1c-1.1,22-1.7,42-2.4,53c-3.8,2.7-11.2,0.5-11.2,0.5s-1.7-49.1-2-55.2
		s-2.8-42.8-2.8-42.8s-2.6,34.3-3.4,44c-1,9.7-3.1,46-3.8,54.6c-6.2,2.5-11.8-0.7-11.8-0.7s-3-79-3.5-93.6c-0.5-14.6,2-24.6,2-24.6"
		/>
	<g>
		<path class="st1" d="M107.4,52.2l1.5-2.6c-2.1-1.2-2.8-3.8-1.6-5.9c1.2-2.1,3.7-2.8,5.8-1.6s2.8,3.8,1.6,5.9"/>
		<polyline class="st1" points="91.6,51.7 107.4,52.2 115.7,65.9 		"/>
		<path class="st2" d="M121.7,74.1l-6.2-12c0,0-15.2,10.1-18.7,8.5C93.3,69,96,50.1,96,50.1L81.6,50l-2.1,21.7
			c-5.9,10.7-15.9,15.2-22.7,20.1c-4.1,2.9-8.2,7.6-8.2,7.6c-9.9,17.7-13.5,42.6-14.4,50.4c-0.1,1.4,0.6,2.9,1.9,3.6L79.7,178
			c1.9,1,4.1,0.2,5-1.8c3.3-7.8,10.8-26.3,14.5-40.8c4.7-18.8,7.6-50.4,7.6-50.4L121.7,74.1z"/>
		<path class="st1" d="M121.7,74.1l-6.2-12c0,0-15.2,10.1-18.7,8.5C93.3,69,96,50.1,96,50.1L81.6,50l-2.1,21.7
			c-5.9,10.7-15.9,15.2-22.7,20.1c-4.1,2.9-8.2,7.6-8.2,7.6c-9.9,17.7-13.5,42.6-14.4,50.4c-0.1,1.4,0.6,2.9,1.9,3.6L79.7,178
			c1.9,1,4.1,0.2,5-1.8c3.3-7.8,10.8-26.3,14.5-40.8c4.7-18.8,7.6-50.4,7.6-50.4L121.7,74.1z"/>
	</g>
	<path class="st0" d="M46.1,99.4l10.7,3.2c1.1,0.3,2.3-0.1,3-1l3.6-4.4c1.4-1.6,0.7-4.1-1.3-4.8c-2.5-0.9-5.3-1.9-6.1-2.1
		c-1.6-0.4-7.7,1.7-7.7,1.7"/>
	<path class="st1" d="M46.1,99.4l10.7,3.2c1.1,0.3,2.3-0.1,3-1l3.6-4.4c1.4-1.6,0.7-4.1-1.3-4.8c-2.5-0.9-5.3-1.9-6.1-2.1
		c-1.6-0.4-7.7,1.7-7.7,1.7"/>
	<path class="st1" d="M16.2,55.8l0.1,24.1l32.3,10.3l-3,9.9c0,0-23.2-3.5-33.3-6.7C2.5,90.2,2.3,82.8,1.8,73.9
		c-0.5-8-0.3-27.1,2.9-33.3c2.9-5.7,13.6-5.9,13.6-5.9v-9.9c-2.4-1.8-3.9-6.1-2.3-6.9c1.7-0.8,2.4,1.1,2.4,1.1s2.6-1,3.1-4.5
		c0.4-3,1.4-6.3,8.3-6.3c6.2,0,6.1,6.4,6.1,6.4s0.3,2.8,0,6.4c-0.5,7.3-4.2,10.9-6.7,10.9c-4.4,0-6.8-3-6.8-3"/>
</g>
</svg>
