<?xml version="1.0" encoding="utf-8"?>
<!-- Generator: Adobe Illustrator 22.1.0, SVG Export Plug-In . SVG Version: 6.00 Build 0)  -->
<svg version="1.1" id="Слой_1" xmlns="http://www.w3.org/2000/svg" xmlns:xlink="http://www.w3.org/1999/xlink" x="0px" y="0px"
	 viewBox="0 0 123 243" style="enable-background:new 0 0 123 243;" xml:space="preserve">
<style type="text/css">
	.st0{fill:#FFFFFF;}
	.st1{fill:none;stroke:#010101;stroke-width:1.2;stroke-linecap:round;stroke-linejoin:round;stroke-miterlimit:10;}
	.st2{fill:#CCCCCC;}
</style>
<g>
	<path class="st0" d="M80.3,227.1c0,0,5.7,2.9,11.6,0.6c0-12.2,5.1-96.7,5.1-96.7l7.3,96.8c0,0,7.5,1.9,12-0.7
		c0.4-18,4.2-84.6,3.7-96.1c-0.4-11.5-2-22.1-2-22.1h2L118.2,90c0,0,3.7-5.1,4.3-17.2c0.6-12.1-0.6-29.1-4.2-33.7
		c0.6-4.2-0.8-11.1-1.6-13.9c-0.8-2.8,1.2-10.9,0.9-14.2c-0.3-3.3-1.9-14.6-12.3-8.7C98.8,0.5,87.8-1,87.8,11.6
		c-0.5,6.2-1.1,19.3,7.3,20.5c-0.2,1.8,0.4,3,0.4,3s-11.6-0.3-14.6,6.2C78,47.8,68.6,69.9,68.6,69.9l-27.8-6.7l0.7,9.1
		c0,0,14,6.7,20.3,9.1c6.3,2.4,16.2,2.9,18.9-7.6C80.5,79.7,80,86.3,80,86.3l-1.3,2.2l-4,1.5l2.9,9.7l-0.1,59.7L80.3,227.1z"/>
	<path class="st0" d="M90.8,227.4c-0.1,3-0.2,7.4,0.5,9.6l-1.5,2.9l-17.7,0.2l-1.4-2.6c5.6-1.6,10.7-5.5,10.6-10.3"/>
	<path class="st1" d="M90.8,227.4c-0.1,3-0.2,7.4,0.5,9.6l-1.5,2.9l-17.7,0.2l-1.4-2.6c5.6-1.6,10.7-5.5,10.6-10.3"/>
	<path class="st0" d="M71.6,237c0,0,4.5,3.6,19.2-2.2c0,0,0.3-0.3,0.5,0.1c0.3,0.4,2,3.1,0.5,5.8c0,0-0.2,1.1-2.2,1.2
		c-2,0.2-20.1,0-21.8,0c-2,0-3.7-1-3.9-2.1C63.8,238.7,71.6,237,71.6,237"/>
	<path class="st1" d="M71.6,237c0,0,4.5,3.6,19.2-2.2c0,0,0.3-0.3,0.5,0.1c0.3,0.4,2,3.1,0.5,5.8c0,0-0.2,1.1-2.2,1.2
		c-2,0.2-20.1,0-21.8,0c-2,0-3.7-1-3.9-2.1C63.8,238.7,71.6,237,71.6,237z"/>
	<path class="st0" d="M114.8,227.7c-0.1,2.9,0,7.1,0.7,9.3l-1.5,2.9l-17.7,0.2l-1.4-2.6c4.9-1.4,9.5-5.2,10.5-9.2"/>
	<path class="st1" d="M114.8,227.7c-0.1,2.9,0,7.1,0.7,9.3l-1.5,2.9l-17.7,0.2l-1.4-2.6c4.9-1.4,9.5-5.2,10.5-9.2"/>
	<path class="st0" d="M95.7,237c0,0,4.5,3.6,19.2-2.2c0,0,0.3-0.3,0.5,0.1c0.3,0.4,2,3.1,0.5,5.8c0,0-0.2,1.1-2.2,1.2
		c-2,0.2-20.1,0-21.8,0c-2,0-3.7-1-3.9-2.1C87.9,238.7,95.7,237,95.7,237"/>
	<path class="st1" d="M95.7,237c0,0,4.5,3.6,19.2-2.2c0,0,0.3-0.3,0.5,0.1c0.3,0.4,2,3.1,0.5,5.8c0,0-0.2,1.1-2.2,1.2
		c-2,0.2-20.1,0-21.8,0c-2,0-3.7-1-3.9-2.1C87.9,238.7,95.7,237,95.7,237z"/>
	<path class="st1" d="M87.8,13.8c0,0-3.3-13.3,12.4-12.9c13,0.4,16.4,18.9,5.4,27.3"/>
	<path class="st1" d="M104.4,1.9c0,0,16.8-8,12.2,17.2c-1.5,8.3,2.6,8.3,2.1,19.9"/>
	<path class="st1" d="M95.4,32.1v2.5c0,0-10.8,1.6-14,5.7c-3.2,4.1-12.9,29.6-12.9,29.6l-28.2-6.8"/>
	<path class="st1" d="M45.5,74.2c0,0,18.6,9.9,25.6,8.9c6.4-0.9,9.6-9.4,9.6-9.4"/>
	<path class="st1" d="M107.3,34.8c0,0-2.1,11.6-12.6,11C85.3,45.2,93.6,35,93.6,35"/>
	<path class="st1" d="M80.3,55.4c0,0-1.5,10,0.3,17.4c1.2,4.8,0.1,11.7-1.4,16.1"/>
	<path class="st1" d="M118.2,90l1.8,18.7c0,0-20.8,2.2-39.7,0.1"/>
	<path class="st1" d="M117.9,108.8c0,0,2.5,10,2,24.6c-0.6,14.6-3.6,93.6-3.6,93.6s-5.7,3.2-12,0.7c-0.8-8.6-2.9-44.9-3.9-54.6
		c-0.9-9.7-3.5-44-3.5-44s-2.5,36.7-2.8,42.8c-0.3,6.1-2,55.2-2,55.2s-7.5,2.2-11.4-0.5c-0.7-11-1.3-31-2.4-53
		c-0.5-10.3-0.8-15.1-0.8-15.1"/>
	<g>
		<path class="st1" d="M7.6,48c-1.2-2.1-0.5-4.7,1.6-5.9c2.1-1.2,4.7-0.5,5.9,1.6c1.2,2.1,0.5,4.7-1.6,5.9l1.5,2.6"/>
		<polyline class="st1" points="6.6,65.9 15,52.2 31.1,51.7 		"/>
		<path class="st2" d="M15.7,85c0,0,2.9,31.6,7.7,50.4c3.7,14.5,11.3,33,14.7,40.8c0.9,2,3.2,2.8,5.1,1.8l44.2-24.6
			c1.3-0.7,2-2.2,1.9-3.6c-0.9-7.8-4.5-32.7-14.6-50.4c0,0-4.1-4.7-8.3-7.6c-7-4.9-17.1-9.4-23.1-20.1L41.2,50l-14.6,0.1
			c0,0,2.8,18.9-0.8,20.5c-3.6,1.6-19-8.5-19-8.5L0.5,74.1L15.7,85z"/>
		<path class="st1" d="M15.7,85c0,0,2.9,31.6,7.7,50.4c3.7,14.5,11.3,33,14.7,40.8c0.9,2,3.2,2.8,5.1,1.8l44.2-24.6
			c1.3-0.7,2-2.2,1.9-3.6c-0.9-7.8-4.5-32.7-14.6-50.4c0,0-4.1-4.7-8.3-7.6c-7-4.9-17.1-9.4-23.1-20.1L41.2,50l-14.6,0.1
			c0,0,2.8,18.9-0.8,20.5c-3.6,1.6-19-8.5-19-8.5L0.5,74.1L15.7,85z"/>
	</g>
	<path class="st0" d="M75,92c0,0-6.2-2.1-7.8-1.7c-0.8,0.2-3.7,1.2-6.2,2.1c-2,0.7-2.7,3.2-1.3,4.8l3.7,4.4c0.7,0.9,1.9,1.3,3,1
		l10.9-3.2"/>
	<path class="st1" d="M75,92c0,0-6.2-2.1-7.8-1.7c-0.8,0.2-3.7,1.2-6.2,2.1c-2,0.7-2.7,3.2-1.3,4.8l3.7,4.4c0.7,0.9,1.9,1.3,3,1
		l10.9-3.2"/>
	<path class="st1" d="M101.5,28.9c0,0-2.4,3-6.9,3c-2.5,0-6.3-3.6-6.8-10.9c-0.3-3.6,0-6.4,0-6.4s-0.1-6.4,6.2-6.4
		c7,0,8,3.3,8.4,6.3c0.5,3.5,3.1,4.5,3.1,4.5s0.7-1.9,2.4-1.1c1.7,0.8,0.1,5.1-2.3,6.9v9.9c0,0,10.9,0.2,13.8,5.9
		c3.2,6.2,3.4,25.3,2.9,33.3c-0.5,8.9-0.7,16.3-10.8,19.5c-10.2,3.2-33.8,6.7-33.8,6.7l-3-9.9l32.8-10.3l0.1-24.1"/>
</g>
</svg>
